<?xml version="1.0" encoding="UTF-8" standalone="no"?>
<!-- Created with Inkscape (http://www.inkscape.org/) -->

<svg
   version="1.1"
   id="svg1"
   width="511.48416"
   height="411.0665"
   viewBox="0 0 511.48416 411.06648"
   sodipodi:docname="mag_curve.svg"
   inkscape:version="1.3 (0e150ed6c4, 2023-07-21)"
   xmlns:inkscape="http://www.inkscape.org/namespaces/inkscape"
   xmlns:sodipodi="http://sodipodi.sourceforge.net/DTD/sodipodi-0.dtd"
   xmlns="http://www.w3.org/2000/svg"
   xmlns:svg="http://www.w3.org/2000/svg">
  <defs
     id="defs1">
    <rect
       x="185.20522"
       y="46.487755"
       width="36.792446"
       height="55.685863"
       id="rect11" />
    <rect
       x="204.09863"
       y="35.052261"
       width="29.08592"
       height="25.605555"
       id="rect10" />
    <rect
       x="173.52113"
       y="28.837322"
       width="50.962509"
       height="25.605555"
       id="rect9" />
    <rect
       x="207.33041"
       y="70.601723"
       width="48.476536"
       height="37.786839"
       id="rect1" />
    <rect
       x="318.87408"
       y="361.0625"
       width="10.195533"
       height="21.797346"
       id="rect15" />
    <rect
       x="373.89081"
       y="309.75262"
       width="37.041039"
       height="33.06348"
       id="rect14" />
    <marker
       style="overflow:visible"
       id="marker12"
       refX="0"
       refY="0"
       orient="auto-start-reverse"
       inkscape:stockid="Triangle arrow"
       markerWidth="1"
       markerHeight="1"
       viewBox="0 0 1 1"
       inkscape:isstock="true"
       inkscape:collect="always"
       preserveAspectRatio="xMidYMid">
      <path
         transform="scale(0.5)"
         style="fill:context-stroke;fill-rule:evenodd;stroke:context-stroke;stroke-width:1pt"
         d="M 5.77,0 -2.88,5 V -5 Z"
         id="path12" />
    </marker>
    <marker
       style="overflow:visible"
       id="marker10"
       refX="0"
       refY="0"
       orient="auto-start-reverse"
       inkscape:stockid="Triangle arrow"
       markerWidth="1"
       markerHeight="1"
       viewBox="0 0 1 1"
       inkscape:isstock="true"
       inkscape:collect="always"
       preserveAspectRatio="xMidYMid">
      <path
         transform="scale(0.5)"
         style="fill:context-stroke;fill-rule:evenodd;stroke:context-stroke;stroke-width:1pt"
         d="M 5.77,0 -2.88,5 V -5 Z"
         id="path10" />
    </marker>
    <marker
       style="overflow:visible"
       id="Triangle"
       refX="0"
       refY="0"
       orient="auto-start-reverse"
       inkscape:stockid="Triangle arrow"
       markerWidth="1"
       markerHeight="1"
       viewBox="0 0 1 1"
       inkscape:isstock="true"
       inkscape:collect="always"
       preserveAspectRatio="xMidYMid">
      <path
         transform="scale(0.5)"
         style="fill:context-stroke;fill-rule:evenodd;stroke:context-stroke;stroke-width:1pt"
         d="M 5.77,0 -2.88,5 V -5 Z"
         id="path135" />
    </marker>
    <clipPath
       clipPathUnits="userSpaceOnUse"
       id="clipPath2">
      <path
         d="M 0,0 H 840.00002 V 630 H 0 Z"
         transform="translate(3.4725e-6)"
         id="path2" />
    </clipPath>
    <marker
       style="overflow:visible"
       id="Triangle-7"
       refX="0"
       refY="0"
       orient="auto-start-reverse"
       inkscape:stockid="Triangle arrow"
       markerWidth="1"
       markerHeight="1"
       viewBox="0 0 1 1"
       inkscape:isstock="true"
       inkscape:collect="always"
       preserveAspectRatio="xMidYMid">
      <path
         transform="scale(0.5)"
         style="fill:context-stroke;fill-rule:evenodd;stroke:context-stroke;stroke-width:1pt"
         d="M 5.77,0 -2.88,5 V -5 Z"
         id="path135-3" />
    </marker>
    <rect
       x="373.89081"
       y="309.75262"
       width="71.596107"
       height="23.86537"
       id="rect14-7" />
    <rect
       x="373.89081"
       y="309.75262"
       width="71.596107"
       height="23.86537"
       id="rect14-6" />
    <rect
       x="373.89081"
       y="309.75262"
       width="71.596107"
       height="23.86537"
       id="rect14-6-3" />
    <rect
       x="373.89081"
       y="309.75262"
       width="71.596107"
       height="23.86537"
       id="rect14-0" />
    <rect
       x="373.89081"
       y="309.75262"
       width="71.596107"
       height="23.86537"
       id="rect14-0-6" />
    <rect
       x="373.89081"
       y="309.75262"
       width="71.596107"
       height="23.86537"
       id="rect14-7-4" />
    <rect
       x="373.89081"
       y="309.75262"
       width="71.596107"
       height="23.86537"
       id="rect14-7-4-3" />
    <rect
       x="185.20522"
       y="46.487755"
       width="36.792446"
       height="55.685863"
       id="rect11-3" />
    <rect
       x="373.89081"
       y="309.75262"
       width="71.596107"
       height="23.86537"
       id="rect14-6-8" />
    <rect
       x="373.89081"
       y="309.75262"
       width="71.596107"
       height="23.86537"
       id="rect14-6-5" />
    <rect
       x="185.20522"
       y="46.487755"
       width="36.792446"
       height="55.685863"
       id="rect11-8" />
    <rect
       x="373.89081"
       y="309.75262"
       width="71.596107"
       height="23.86537"
       id="rect14-6-5-0" />
    <rect
       x="185.20522"
       y="46.487755"
       width="36.792446"
       height="55.685863"
       id="rect11-8-3" />
    <rect
       x="185.20522"
       y="46.487755"
       width="36.792446"
       height="55.685863"
       id="rect11-8-3-5" />
    <rect
       x="373.89081"
       y="309.75262"
       width="71.596107"
       height="23.86537"
       id="rect14-6-5-0-5" />
    <rect
       x="185.20522"
       y="46.487755"
       width="36.792446"
       height="55.685863"
       id="rect11-8-3-5-5" />
    <rect
       x="373.89081"
       y="309.75262"
       width="71.596107"
       height="23.86537"
       id="rect14-6-5-0-5-4" />
  </defs>
  <sodipodi:namedview
     id="namedview1"
     pagecolor="#ffffff"
     bordercolor="#000000"
     borderopacity="0.25"
     inkscape:showpageshadow="2"
     inkscape:pageopacity="0.0"
     inkscape:pagecheckerboard="0"
     inkscape:deskcolor="#d1d1d1"
     showgrid="false"
     inkscape:zoom="1.4221914"
     inkscape:cx="264.02916"
     inkscape:cy="185.98059"
     inkscape:window-width="2160"
     inkscape:window-height="1406"
     inkscape:window-x="-11"
     inkscape:window-y="-11"
     inkscape:window-maximized="1"
     inkscape:current-layer="g1">
    <inkscape:page
       x="0"
       y="0"
       inkscape:label="1"
       id="page1"
       width="511.48416"
       height="411.06647"
       margin="0"
       bleed="0" />
  </sodipodi:namedview>
  <g
     id="g1"
     inkscape:groupmode="layer"
     inkscape:label="1"
     transform="translate(-161.62859,-345.06805)">
    <text
       xml:space="preserve"
       id="text14-8-5-1"
       style="font-style:normal;font-variant:normal;font-weight:normal;font-stretch:normal;font-size:13.144px;font-family:'Times New Roman';-inkscape-font-specification:'Times New Roman, Normal';font-variant-ligatures:normal;font-variant-caps:normal;font-variant-numeric:normal;font-variant-east-asian:normal;white-space:pre;shape-inside:url(#rect14-6-5-0);display:inline;fill:#000000;stroke:#0072bd;stroke-width:0;stroke-dasharray:none;stroke-opacity:1"
       transform="matrix(1.8271823,0,0,1.8246763,-272.39871,110.15366)"><tspan
         x="373.89062"
         y="321.41884"
         id="tspan6">-B</tspan></text>
    <text
       xml:space="preserve"
       transform="matrix(0.76624063,0,0,0.7444137,292.51018,645.56332)"
       id="text11-5-7"
       style="font-style:normal;font-variant:normal;font-weight:normal;font-stretch:normal;font-size:24px;font-family:'Times New Roman';-inkscape-font-specification:'Times New Roman, Normal';font-variant-ligatures:normal;font-variant-caps:normal;font-variant-numeric:normal;font-variant-east-asian:normal;white-space:pre;shape-inside:url(#rect11-8-3);display:inline;fill:#000000;fill-opacity:1;stroke:#0072bd;stroke-width:0"><tspan
         x="185.20508"
         y="67.791181"
         id="tspan7">r</tspan></text>
    <text
       xml:space="preserve"
       transform="matrix(0.76624063,0,0,0.7444137,249.509,376.92356)"
       id="text11-0"
       style="font-style:normal;font-variant:normal;font-weight:normal;font-stretch:normal;font-size:24px;font-family:'Times New Roman';-inkscape-font-specification:'Times New Roman, Normal';font-variant-ligatures:normal;font-variant-caps:normal;font-variant-numeric:normal;font-variant-east-asian:normal;white-space:pre;shape-inside:url(#rect11-3);fill:#000000;fill-opacity:1;stroke:#0072bd;stroke-width:0"><tspan
         x="185.20508"
         y="67.791181"
         id="tspan8">r</tspan></text>
    <text
       xml:space="preserve"
       id="text14-8-0"
       style="font-style:normal;font-variant:normal;font-weight:normal;font-stretch:normal;font-size:18.6667px;font-family:'Times New Roman';-inkscape-font-specification:'Times New Roman, Normal';font-variant-ligatures:normal;font-variant-caps:normal;font-variant-numeric:normal;font-variant-east-asian:normal;white-space:pre;shape-inside:url(#rect14-6-3);fill:#000000;stroke:#0072bd;stroke-width:0;stroke-dasharray:none;stroke-opacity:1"
       transform="translate(35.88143,389.54691)" />
    <path
       id="path5"
       d="m 129.34375,560.96155 0.40689,-4.3e-4 0.40686,-3.7e-4 0.40688,-4.2e-4 0.40687,-3.7e-4 0.40688,-4.3e-4 0.40687,-3.6e-4 0.40688,-4.3e-4 0.40686,-4.3e-4 0.40689,-4.2e-4 0.40686,-4.3e-4 0.40689,-4.3e-4 0.40686,-4.3e-4 0.40689,-4.2e-4 0.40686,-4.3e-4 0.40689,-4.3e-4 0.40686,-4.9e-4 0.4069,-4.2e-4 0.40686,-4.9e-4 0.40687,-4.3e-4 0.40688,-4.9e-4 0.40687,-4.9e-4 0.40688,-4.2e-4 0.40687,-4.9e-4 0.40686,-4.9e-4 0.40689,-4.9e-4 0.4069,-4.9e-4 0.40686,-5.5e-4 0.40687,-4.8e-4 0.40688,-4.9e-4 0.40687,-5.5e-4 0.40688,-4.9e-4 0.40687,-5.5e-4 0.40686,-5.5e-4 0.4069,-5.5e-4 0.40686,-4.9e-4 0.40689,-5.4e-4 0.40686,-5.5e-4 0.40689,-6.1e-4 0.40686,-5.5e-4 0.40689,-5.5e-4 0.40686,-6.1e-4 0.40689,-5.5e-4 0.40686,-6.1e-4 0.40688,-6.1e-4 0.40687,-5.5e-4 0.40688,-6.1e-4 0.40687,-6.1e-4 0.40688,-6.7e-4 0.40686,-6.2e-4 0.40689,-6.1e-4 0.40689,-6.7e-4 0.40686,-6.1e-4 0.40688,-6.7e-4 0.40687,-6.7e-4 0.40688,-6.1e-4 0.40687,-6.7e-4 0.40688,-6.7e-4 0.40686,-7.4e-4 0.40689,-6.7e-4 0.40686,-6.7e-4 0.40689,-7.3e-4 0.40686,-7.3e-4 0.40689,-6.7e-4 0.40686,-7.4e-4 0.40689,-7.3e-4 0.40686,-7.3e-4 0.4069,-8e-4 0.40686,-7.3e-4 0.40687,-7.9e-4 0.40688,-7.3e-4 0.40687,-8e-4 0.40688,-7.9e-4 0.40687,-7.9e-4 0.40686,-8e-4 0.40689,-7.9e-4 0.4069,-8.6e-4 0.40686,-7.9e-4 0.40687,-8.5e-4 0.40688,-8.6e-4 0.40687,-8.5e-4 0.40688,-8.6e-4 0.40687,-8.5e-4 0.40686,-8.6e-4 0.4069,-9.1e-4 0.40686,-9.2e-4 0.40689,-8.5e-4 0.40686,-9.2e-4 0.40689,-9.1e-4 0.40686,-9.8e-4 0.40689,-9.1e-4 0.40686,-9.8e-4 0.40689,-9.2e-4 0.40686,-9.7e-4 0.40688,-9.8e-4 0.40687,-0.001 0.40688,-9.7e-4 0.40687,-10e-4 0.40688,-9.8e-4 0.40686,-10e-4 0.40689,-0.001 0.40689,-10e-4 0.40686,-10e-4 0.40688,-10e-4 0.40687,-10e-4 0.40688,-0.001 0.40687,-10e-4 0.40688,-10e-4 0.40686,-10e-4 0.40689,-10e-4 0.40686,-0.001 0.40689,-10e-4 0.40686,-10e-4 0.40689,-10e-4 0.40686,-10e-4 0.40689,-0.001 0.40686,-10e-4 0.4069,-10e-4 0.40686,-10e-4 0.40687,-10e-4 0.40688,-0.001 0.40687,-10e-4 0.40688,-10e-4 0.40687,-10e-4 0.40686,-0.001 0.40689,-10e-4 0.4069,-10e-4 0.40686,-10e-4 0.40687,-10e-4 0.40688,-0.001 0.40687,-10e-4 0.40688,-10e-4 0.40687,-10e-4 0.40686,-10e-4 0.4069,-0.001 0.40686,-10e-4 0.40689,-10e-4 0.40686,-0.002 0.40689,-0.002 0.40686,-0.002 0.40689,-0.002 0.40686,-0.002 0.40689,-0.002 0.40686,-0.002 0.40688,-0.002 0.40687,-0.002 0.40688,-0.002 0.40687,-0.002 0.40688,-0.002 0.40686,-0.002 0.40689,-0.002 0.40689,-0.002 0.40686,-0.002 0.40688,-0.002 0.40687,-0.002 0.40688,-0.002 0.40687,-0.002 0.40688,-0.002 0.40686,-0.002 0.40689,-0.002 0.40686,-0.002 0.40689,-0.002 0.40686,-0.002 0.40689,-0.002 0.40686,-0.002 0.40689,-0.002 0.40686,-0.002 0.4069,-0.002 0.40686,-0.002 0.40687,-0.002 0.40688,-0.002 0.40687,-0.002 0.40688,-0.002 0.40687,-0.002 0.40686,-0.002 0.40689,-0.002 0.4069,-0.002 0.40686,-0.002 0.40687,-0.002 0.40688,-0.002 0.40687,-0.002 0.40688,-0.002 0.40687,-0.002 0.40686,-0.002 0.4069,-0.002 0.40686,-0.002 0.40689,-0.002 0.40686,-0.002 0.40689,-0.003 0.40686,-0.003 0.40689,-0.003 0.40686,-0.003 0.40689,-0.003 0.40686,-0.003 0.40688,-0.003 0.40687,-0.003 0.40688,-0.003 0.40687,-0.003 0.40688,-0.003 0.40686,-0.003 0.40689,-0.003 0.40689,-0.003 0.40686,-0.003 0.40688,-0.003 0.40687,-0.003 0.40688,-0.003 0.40687,-0.003 0.40688,-0.003 0.40686,-0.003 0.40689,-0.003 0.40686,-0.003 0.40689,-0.003 0.40686,-0.003 0.40689,-0.003 0.40686,-0.003 0.40689,-0.003 0.40686,-0.003 0.4069,-0.003 0.40686,-0.003 0.40687,-0.003 0.40688,-0.003 0.40687,-0.003 0.40688,-0.004 0.40687,-0.004 0.40686,-0.004 0.40689,-0.004 0.4069,-0.004 0.40686,-0.004 0.40687,-0.004 0.40688,-0.004 0.40687,-0.004 0.40688,-0.004 0.40687,-0.004 0.40686,-0.004 0.4069,-0.004 0.40686,-0.004 0.40689,-0.004 0.40686,-0.004 0.40689,-0.004 0.40686,-0.004 0.40689,-0.004 0.40686,-0.004 0.40689,-0.004 0.40686,-0.004 0.40688,-0.004 0.40687,-0.004 0.40688,-0.005 0.40687,-0.005 0.40688,-0.005 0.40686,-0.005 0.40689,-0.005 0.40689,-0.005 0.40686,-0.005 0.40688,-0.005 0.40687,-0.005 0.40688,-0.005 0.40687,-0.005 0.40688,-0.005 0.40686,-0.005 0.40689,-0.005 0.40686,-0.005 0.40689,-0.005 0.40686,-0.005 0.40689,-0.005 0.40686,-0.005 0.40689,-0.005 0.40686,-0.005 0.4069,-0.005 0.40686,-0.006 0.40687,-0.006 0.40688,-0.006 0.40687,-0.006 0.40688,-0.006 0.40687,-0.006 0.40686,-0.006 0.40689,-0.006 0.4069,-0.006 0.40686,-0.006 0.40687,-0.006 0.40688,-0.006 0.40687,-0.006 0.40688,-0.006 0.40687,-0.006 0.40686,-0.006 0.4069,-0.007 0.40686,-0.007 0.40689,-0.007 0.40686,-0.007 0.40689,-0.007 0.40686,-0.007 0.40689,-0.007 0.40686,-0.007 0.40689,-0.007 0.40686,-0.007 0.40688,-0.007 0.40687,-0.007 0.40688,-0.007 0.40687,-0.007 0.40688,-0.008 0.40686,-0.008 0.40689,-0.008 0.40689,-0.008 0.40686,-0.008 0.40688,-0.008 0.40687,-0.008 0.40688,-0.008 0.40687,-0.008 0.40688,-0.008 0.40686,-0.008 0.40689,-0.008 0.40686,-0.008 0.40689,-0.009 0.40688,-0.009 0.40686,-0.009 0.40689,-0.009 0.40686,-0.009 0.40686,-0.009 0.40689,-0.009 0.40686,-0.009 0.40689,-0.009 0.40686,-0.009 0.40689,-0.009 0.40686,-0.01 0.40689,-0.01 0.40686,-0.01 0.40689,-0.01 0.4069,-0.01 0.40686,-0.01 0.40689,-0.0101 0.40686,-0.0103 0.40689,-0.0103 0.40686,-0.0104 0.40689,-0.0106 0.40686,-0.0106 0.40689,-0.0108 0.40686,-0.0109 0.40686,-0.0109 0.40689,-0.0111 0.40686,-0.0112 0.40689,-0.0113 0.40686,-0.0114 0.40686,-0.0115 0.4069,-0.0117 0.40686,-0.0117 0.40689,-0.0119 0.40686,-0.012 0.40689,-0.0121 0.40686,-0.0123 0.40689,-0.0124 0.40686,-0.0124 0.40689,-0.0126 0.40686,-0.0127 0.40689,-0.0128 0.40686,-0.013 0.40689,-0.0132 0.40686,-0.0133 0.40689,-0.0134 0.40686,-0.0136 0.40689,-0.0137 0.40687,-0.0138 0.40689,-0.0139 0.40686,-0.014 0.40689,-0.0142 0.40686,-0.0144 0.40689,-0.0145 0.40686,-0.0146 0.40689,-0.0148 0.40686,-0.015 0.40689,-0.0151 0.40686,-0.0153 0.40689,-0.0154 0.40686,-0.0156 0.40689,-0.0157 0.40686,-0.0159 0.40689,-0.016 0.40686,-0.0162 0.40687,-0.0164 0.40689,-0.0165 0.40686,-0.0167 0.40689,-0.0168 0.40686,-0.017 0.40689,-0.0172 0.40686,-0.0173 0.40689,-0.0175 0.40686,-0.0177 0.40689,-0.0178 0.40686,-0.0181 0.40689,-0.0182 0.40686,-0.0184 0.40689,-0.0186 0.40686,-0.0187 0.40689,-0.019 0.40687,-0.0192 0.40689,-0.0194 0.40686,-0.0195 0.40689,-0.0197 0.40686,-0.0199 0.40689,-0.0201 0.40686,-0.0203 0.40689,-0.0205 0.40686,-0.0208 0.40686,-0.0209 0.40689,-0.0212 0.40686,-0.0214 0.40689,-0.0215 0.40686,-0.0218 0.40689,-0.022 0.40686,-0.0222 0.40689,-0.0224 0.40687,-0.0227 0.40689,-0.0229 0.40686,-0.0231 0.40689,-0.0233 0.40686,-0.0236 0.40689,-0.0238 0.40686,-0.024 0.40689,-0.0243 0.40686,-0.0245 0.40689,-0.0248 0.40686,-0.025 0.40689,-0.0253 0.40686,-0.0256 0.40689,-0.0258 0.40686,-0.0261 0.40689,-0.0263 0.40686,-0.0266 0.40687,-0.0268 0.40689,-0.0271 0.40686,-0.0273 0.40689,-0.0276 0.40686,-0.0279 0.40689,-0.0282 0.40686,-0.0285 0.40689,-0.0287 0.40686,-0.0291 0.40689,-0.0293 0.40686,-0.0297 0.40689,-0.0299 0.40686,-0.0302 0.40689,-0.0305 0.40686,-0.0308 0.40689,-0.0311 0.40687,-0.0314 0.40689,-0.0317 0.40686,-0.0321 0.40689,-0.0324 0.40686,-0.0326 0.40689,-0.033 0.40686,-0.0333 0.40689,-0.0337 0.40686,-0.034 0.40686,-0.0344 0.40689,-0.0347 0.40686,-0.035 0.40689,-0.0353 0.40686,-0.0357 0.40689,-0.0361 0.40686,-0.0364 0.40689,-0.0368 0.40687,-0.0372 0.40689,-0.0375 0.40686,-0.0379 0.40689,-0.0383 0.40686,-0.0386 0.40689,-0.0391 0.40686,-0.0394 0.40689,-0.0398 0.40686,-0.0402 0.40689,-0.0406 0.40686,-0.041 0.40689,-0.0414 0.40686,-0.0418 0.40689,-0.0422 0.40686,-0.0427 0.40689,-0.0431 0.40686,-0.0435 0.40687,-0.0439 0.40689,-0.0444 0.40686,-0.0448 0.40689,-0.0452 0.40686,-0.0456 0.40689,-0.0462 0.40686,-0.0466 0.40689,-0.0471 0.40686,-0.0475 0.40689,-0.048 0.40686,-0.0485 0.40689,-0.049 0.40686,-0.0494 0.40689,-0.0499 0.40686,-0.0504 0.40689,-0.0509 0.40687,-0.0514 0.40689,-0.0519 0.40686,-0.0524 0.40689,-0.0529 0.40686,-0.0535 0.40689,-0.054 0.40686,-0.0545 0.40689,-0.0551 0.40686,-0.0555 0.40686,-0.0562 0.40689,-0.0566 0.40686,-0.0572 0.40689,-0.0578 0.40686,-0.0584 0.40689,-0.059 0.40686,-0.0595 0.40689,-0.0601 0.40687,-0.0607 0.40689,-0.0613 0.40686,-0.0619 0.40689,-0.0625 0.40686,-0.0631 0.40689,-0.0637 0.40686,-0.0643 0.40689,-0.065 0.40686,-0.0656 0.40689,-0.0662 0.40686,-0.0669 0.40689,-0.0676 0.40686,-0.0682 0.40689,-0.0689 0.40686,-0.0695 0.40689,-0.0703 0.40686,-0.0709 0.40687,-0.0716 0.40689,-0.0723 0.40686,-0.0731 0.40689,-0.0737 0.40686,-0.0745 0.40689,-0.0751 0.40686,-0.0759 0.40689,-0.0767 0.40686,-0.0774 0.40689,-0.0782 0.40686,-0.0789 0.40689,-0.0797 0.40686,-0.0804 0.40689,-0.0812 0.40686,-0.082 0.40689,-0.0829 0.40687,-0.0836 0.40689,-0.0844 0.40686,-0.0853 0.40689,-0.0861 0.40686,-0.0869 0.40689,-0.0878 0.40686,-0.0886 0.40689,-0.0895 0.40686,-0.0904 0.40686,-0.0912 0.40689,-0.0921 0.40686,-0.093 0.40689,-0.0939 0.40686,-0.0948 0.40689,-0.0957 0.40686,-0.0967 0.40689,-0.0976 0.40687,-0.0985 0.40689,-0.0995 0.40686,-0.1004 0.40689,-0.10144 0.40686,-0.10236 0.40689,-0.10339 0.40686,-0.10437 0.40689,-0.10535 0.40686,-0.10638 0.40689,-0.10742 0.40686,-0.10846 0.40689,-0.10944 0.40686,-0.11053 0.40689,-0.11164 0.40686,-0.11267 0.40689,-0.11377 0.40686,-0.1148 0.40687,-0.11597 0.40689,-0.117 0.40686,-0.11823 0.40689,-0.11926 0.40686,-0.12049 0.40689,-0.12158 0.40686,-0.12274 0.40689,-0.12396 0.40686,-0.12512 0.40689,-0.12629 0.40686,-0.1275 0.40689,-0.12878 0.40686,-0.12995 0.40689,-0.13116 0.40686,-0.13245 0.40689,-0.13373 0.40687,-0.13494 0.40689,-0.1363 0.40686,-0.13751 0.40689,-0.13885 0.40686,-0.1402 0.40689,-0.14154 0.40686,-0.14282 0.40689,-0.14417 0.40686,-0.14557 0.40686,-0.14697 0.40689,-0.14832 0.40686,-0.14971 0.40689,-0.15113 0.40686,-0.15259 0.40689,-0.15399 0.40686,-0.15545 0.40689,-0.15693 0.40687,-0.15844 0.40689,-0.15985 0.40686,-0.16138 0.40689,-0.16296 0.40686,-0.16443 0.40689,-0.16596 0.40686,-0.16754 0.40689,-0.16907 0.40686,-0.17071 0.40689,-0.1723 0.40686,-0.17389 0.40689,-0.17548 0.40686,-0.17718 0.40689,-0.17878 0.40686,-0.18048 0.40689,-0.18219 0.40687,-0.18384 0.40686,-0.18554 0.40689,-0.18726 0.40686,-0.18902 0.40689,-0.1908 0.40686,-0.1925 0.40689,-0.19434 0.40686,-0.19611 0.40689,-0.19793 0.40686,-0.19977 0.40689,-0.2016 0.40686,-0.20349 0.40689,-0.20532 0.40686,-0.20722 0.40689,-0.2091 0.40686,-0.21106 0.40689,-0.21302 0.40687,-0.21496 0.40689,-0.21692 0.40686,-0.21887 0.40689,-0.22089 0.40686,-0.22296 0.40689,-0.22492 0.40686,-0.22705 0.40689,-0.22906 0.40686,-0.23114 0.40686,-0.23328 0.40689,-0.23535 0.40686,-0.23755 0.40689,-0.23968 0.40686,-0.24183 0.40689,-0.24401 0.40686,-0.24622 0.40689,-0.24847 0.40687,-0.25068 0.40689,-0.25299 0.40686,-0.25518 0.40689,-0.25757 0.40686,-0.25983 0.40689,-0.26214 0.40686,-0.26453 0.40689,-0.26685 0.40686,-0.26928 0.40689,-0.27167 0.40686,-0.27411 0.40689,-0.27649 0.40686,-0.27899 0.40689,-0.2815 0.40686,-0.28393 0.40689,-0.2865 0.40686,-0.289 0.40687,-0.29157 0.40689,-0.29419 0.40686,-0.29669 0.40689,-0.29938 0.40686,-0.30194 0.40689,-0.30462 0.40686,-0.30731 0.40689,-0.31 0.40686,-0.31269 0.40689,-0.31542 0.40686,-0.31818 0.40689,-0.32099 0.40686,-0.32373 0.40689,-0.32653 0.40686,-0.32941 0.40689,-0.33221 0.40687,-0.33509 0.40689,-0.33801 0.40686,-0.34088 0.40689,-0.34387 0.40686,-0.34674 0.40689,-0.3498 0.40686,-0.35278 0.40689,-0.35577 0.40686,-0.35877 0.40686,-0.36188 0.40689,-0.36493 0.40686,-0.36804 0.40689,-0.37115 0.40686,-0.37433 0.40689,-0.37744 0.40686,-0.38068 0.40689,-0.38385 0.40687,-0.38708 0.40689,-0.39032 0.40686,-0.39356 0.40689,-0.39691 0.40686,-0.40015 0.40689,-0.4035 0.40686,-0.40692 0.40689,-0.41022 0.40686,-0.41363 0.40689,-0.41706 0.40686,-0.42053 0.40689,-0.42395 0.40686,-0.42743 0.40689,-0.43091 0.40686,-0.43451 0.40689,-0.43798 0.40686,-0.44156 0.40687,-0.44516 0.40689,-0.44879 0.40686,-0.4524 0.40689,-0.45605 0.40686,-0.45975 0.40689,-0.46341 0.40686,-0.46716 0.40689,-0.47086 0.40686,-0.47464 0.40689,-0.47842 0.40686,-0.48221 0.40689,-0.48605 0.40686,-0.48987 0.40689,-0.49375 0.40686,-0.49765 0.40689,-0.50152 0.40687,-0.50546 0.40689,-0.5094 0.40686,-0.5134 0.40689,-0.51736 0.40686,-0.52137 0.40689,-0.52542 0.40686,-0.52945 0.40689,-0.53354 0.40686,-0.53759 0.40686,-0.54175 0.40689,-0.54584 0.40686,-0.55002 0.40689,-0.55417 0.40686,-0.55835 0.40689,-0.56259 0.40686,-0.56677 0.40689,-0.57108 0.40687,-0.57528 0.40689,-0.57962 0.40686,-0.5839 0.40689,-0.58822 0.40686,-0.59256 0.40689,-0.59693 0.40686,-0.60131 0.40689,-0.60569 0.40686,-0.6101 0.40689,-0.61454 0.40686,-0.61898 0.40689,-0.62345 0.40686,-0.62793 0.40689,-0.63244 0.40686,-0.63694 0.40689,-0.64148 0.40686,-0.64602 0.40687,-0.65061 0.40689,-0.65515 0.40686,-0.65976 0.40689,-0.66437 0.40686,-0.669 0.40689,-0.67365 0.40686,-0.67828 0.40689,-0.68295 0.40686,-0.68766 0.40689,-0.69232 0.40686,-0.69705 0.40689,-0.70175 0.40686,-0.70651 0.40689,-0.71125 0.40686,-0.716 0.40689,-0.72076 0.40687,-0.72556 0.40689,-0.73035 0.40686,-0.73513 0.40689,-0.73999 0.40686,-0.74479 0.40689,-0.7496 0.40686,-0.75449 0.40689,-0.7593 0.40686,-0.76419 0.40686,-0.76905 0.40689,-0.77392 0.40686,-0.77881 0.40689,-0.78369 0.40686,-0.78861 0.40689,-0.79352 0.40686,-0.7984 0.40689,-0.80334 0.40687,-0.80826 0.40689,-0.81317 0.40686,-0.81808 0.40689,-0.82306 0.40686,-0.82798 0.40689,-0.83291 0.40686,-0.83786 0.40689,-0.84278 0.40686,-0.84774 0.40689,-0.8527 0.40686,-0.85763 0.40689,-0.86258 0.40686,-0.86752 0.40689,-0.87247 0.40686,-0.87741 0.40689,-0.88236 0.40686,-0.88729 0.40687,-0.89225 0.40689,-0.89715 0.40686,-0.90207 0.40689,-0.90702 0.40686,-0.91192 0.40689,-0.91681 0.40686,-0.92175 0.40689,-0.92664 0.40686,-0.93152 0.40689,-0.9364 0.40686,-0.94128 0.40689,-0.94614 0.40686,-0.95099 0.40689,-0.95584 0.40686,-0.96066 0.40689,-0.96549 0.40687,-0.9703 0.40689,-0.9751 0.40686,-0.97989 0.40689,-0.98462 0.40686,-0.98941 0.40689,-0.99411 0.40686,-0.99887 0.40689,-1.00354 0.40686,-1.00827 0.40686,-1.01291 0.40689,-1.01758 0.40686,-1.02218 0.40689,-1.02683 0.40686,-1.0314 0.40689,-1.03598 0.40686,-1.04053 0.40689,-1.04504 0.40687,-1.04956 0.40689,-1.05405 0.40686,-1.0585 0.40689,-1.06293 0.40686,-1.06732 0.40689,-1.07172 0.40686,-1.07605 0.40689,-1.08038 0.40686,-1.08472 0.40689,-1.08896 0.40686,-1.09317 0.40689,-1.09741 0.40686,-1.10156 0.40689,-1.10574 0.40686,-1.10984 0.40689,-1.11392 0.40686,-1.11798 0.40687,-1.12198 0.40689,-1.12595 0.40686,-1.12991 0.40689,-1.13382 0.40686,-1.13766 0.40689,-1.14151 0.40686,-1.14533 0.40689,-1.14905 0.40686,-1.1528 0.40689,-1.15646 0.40686,-1.1601 0.40689,-1.16369 0.40686,-1.16724 0.40689,-1.17078 0.40686,-1.17422 0.40689,-1.17764 0.40687,-1.18106 0.40689,-1.18436 0.40686,-1.18768 0.40689,-1.19089 0.40686,-1.19412 0.40689,-1.19727 0.40686,-1.20038 0.40689,-1.20343 0.40686,-1.20642 0.40686,-1.20938 0.40689,-1.21231 0.40686,-1.21515 0.40689,-1.21799 0.40686,-1.2207 0.40689,-1.22342 0.40686,-1.22607 0.40689,-1.22867 0.40687,-1.23123 0.40689,-1.23371 0.40686,-1.23617 0.40689,-1.2385 0.40686,-1.24087 0.40689,-1.24314 0.40686,-1.24533 0.40689,-1.24752 0.40686,-1.24961 0.40689,-1.25165 0.40686,-1.25366 0.40689,-1.25555 0.40686,-1.25745 0.40689,-1.25924 0.40686,-1.26102 0.40689,-1.2627 0.40686,-1.26434 0.40687,-1.2659 0.40689,-1.26743 0.40686,-1.26886 0.40689,-1.27026 0.40686,-1.27161 0.40689,-1.27282 0.40686,-1.27408 0.40689,-1.27521 0.40686,-1.2763 0.40689,-1.27729 0.40686,-1.27826 0.40689,-1.27917 0.40686,-1.28 0.40689,-1.28076 0.40686,-1.28147 0.40689,-1.28207 0.40687,-1.28268 0.40686,-1.28321 0.40692,-1.28363 0.40686,-1.28402 0.40686,-1.28437 0.40686,-1.2846 0.40692,-1.28479 0.40686,-1.28495 L 515.875,304 l 0.40686,-1.285 0.40686,-1.28492 0.40692,-1.28479 0.40686,-1.2846 0.40686,-1.28437 0.40686,-1.28402 0.40692,-1.2836 0.40686,-1.28321 0.40687,-1.28271 0.40686,-1.28207 0.40692,-1.28147 0.40686,-1.28076 0.40686,-1.28 0.40686,-1.27914 0.40692,-1.27829 0.40686,-1.27732 0.40686,-1.27627 0.40686,-1.27521 0.40692,-1.27408 0.40686,-1.27286 0.40686,-1.27157 0.40686,-1.27026 0.40692,-1.2689 0.40686,-1.26739 0.40686,-1.26593 0.40687,-1.26431 0.40686,-1.2627 0.40692,-1.26102 0.40686,-1.25924 0.40686,-1.25745 0.40686,-1.25558 0.40692,-1.25363 0.40686,-1.25165 0.40686,-1.24964 0.40686,-1.24749 0.40692,-1.24533 0.40686,-1.24314 0.40686,-1.24084 0.40686,-1.23856 0.40692,-1.23613 0.40686,-1.23372 0.40687,-1.23123 0.40686,-1.22865 0.40692,-1.22609 0.40686,-1.22342 0.40686,-1.22072 0.40686,-1.21797 0.40692,-1.21517 0.40686,-1.21231 0.40686,-1.20938 0.40686,-1.20642 0.40686,-1.20344 0.40692,-1.20035 0.40686,-1.19725 0.40686,-1.19412 0.40686,-1.19092 0.40692,-1.18767 0.40686,-1.18436 0.40687,-1.18104 0.40686,-1.17764 0.40692,-1.17426 0.40686,-1.17075 0.40686,-1.16726 0.40686,-1.16368 0.40692,-1.1601 0.40686,-1.15648 0.40686,-1.15277 0.40686,-1.14906 0.40692,-1.14533 0.40686,-1.14152 0.40686,-1.13767 0.40686,-1.1338 0.40692,-1.12991 0.40686,-1.12597 0.40686,-1.12197 0.40687,-1.11797 0.40686,-1.11392 0.40692,-1.10982 0.40686,-1.10574 0.40686,-1.10158 0.40686,-1.09741 0.40692,-1.09319 0.40686,-1.08896 0.40686,-1.08468 0.40686,-1.08039 0.40692,-1.07608 0.40686,-1.0717 0.40686,-1.06734 0.40686,-1.06294 0.40692,-1.05847 0.40686,-1.05405 0.40687,-1.04956 0.40686,-1.04504 0.40692,-1.04053 0.40686,-1.03598 0.40686,-1.03142 0.40686,-1.02679 0.40692,-1.02223 0.40686,-1.01757 0.40686,-1.0129 0.40686,-1.00823 0.40686,-1.00357 0.40692,-0.99886 0.40686,-0.99414 0.40686,-0.98938 0.40686,-0.98466 0.40692,-0.97986 0.40686,-0.9751 0.40687,-0.9703 0.40686,-0.96549 0.40692,-0.96068 0.40686,-0.95584 0.40686,-0.95095 0.40686,-0.94617 0.40692,-0.94129 0.40686,-0.93637 0.40686,-0.93155 0.40686,-0.92663 0.40692,-0.92171 0.40686,-0.91684 0.40686,-0.91194 0.40686,-0.907 0.40692,-0.90207 0.40686,-0.89717 0.40687,-0.89223 0.40686,-0.88728 0.40686,-0.88237 0.40692,-0.87739 0.40686,-0.87249 0.40686,-0.8675 0.40686,-0.86258 0.40692,-0.85765 0.40686,-0.85268 0.40686,-0.84775 0.40686,-0.84279 0.40692,-0.83786 0.40686,-0.83291 0.40686,-0.82799 0.40686,-0.82303 0.40692,-0.8181 0.40686,-0.81319 0.40687,-0.80825 0.40686,-0.80333 0.40692,-0.7984 0.40686,-0.79352 0.40686,-0.78859 0.40686,-0.78369 0.40692,-0.77883 0.40686,-0.77391 0.40686,-0.76907 0.40686,-0.76418 0.40686,-0.7593 0.40692,-0.75446 0.40686,-0.74965 0.40686,-0.74478 0.40686,-0.73998 0.40692,-0.73512 0.40686,-0.73035 0.40687,-0.72558 0.40686,-0.72075 0.40692,-0.71602 0.40686,-0.71123 0.40686,-0.70651 0.40686,-0.70177 0.40692,-0.69702 0.40686,-0.69233 0.40686,-0.68764 0.40686,-0.68295 0.40692,-0.6783 0.40686,-0.67365 0.40686,-0.66898 0.40686,-0.66439 0.40692,-0.65976 0.40686,-0.65518 0.40686,-0.65056 0.40687,-0.64604 0.40686,-0.64148 0.40692,-0.63694 0.40686,-0.63243 0.40686,-0.62793 0.40686,-0.62346 0.40692,-0.61898 0.40686,-0.61455 0.40686,-0.6101 0.40686,-0.60569 0.40692,-0.6013 0.40686,-0.59694 0.40686,-0.59254 0.40686,-0.58823 0.40692,-0.5839 0.40686,-0.57959 0.40687,-0.57533 0.40686,-0.57104 0.40692,-0.56681 0.40686,-0.56255 0.40686,-0.55839 0.40686,-0.55415 0.40692,-0.55003 0.40686,-0.54585 0.40686,-0.54173 0.40686,-0.53761 0.40686,-0.53351 0.40692,-0.52946 0.40686,-0.52542 0.40686,-0.52138 0.40686,-0.51736 0.40692,-0.51339 0.40686,-0.50939 0.40687,-0.50548 0.40686,-0.50152 0.40692,-0.49764 0.40686,-0.49374 0.40686,-0.48988 0.40686,-0.48605 0.40692,-0.48222 0.40686,-0.4784 0.40686,-0.474653 0.40686,-0.470855 0.40692,-0.467156 0.40686,-0.463409 0.40686,-0.459732 0.40686,-0.456063 0.40692,-0.452415 0.40686,-0.448769 0.40686,-0.445152 0.40687,-0.441597 0.40686,-0.437981 0.40692,-0.434494 0.40686,-0.430938 0.40686,-0.427414 0.40686,-0.423981 0.40692,-0.420487 0.40686,-0.41706 0.40686,-0.413628 0.40686,-0.410255 0.40692,-0.406861 0.40686,-0.403518 0.40686,-0.400208 0.40686,-0.396866 0.40692,-0.393593 0.40686,-0.390312 0.40687,-0.387062 0.40686,-0.38385 0.40692,-0.380661 0.40686,-0.377449 0.40686,-0.374321 0.40686,-0.371163 0.40692,-0.368041 0.40686,-0.364914 0.40686,-0.361878 0.40686,-0.358818 0.40686,-0.355759 0.40692,-0.352752 0.40686,-0.349778 0.40686,-0.346778 0.40686,-0.343834 0.40692,-0.340927 0.40686,-0.337983 0.40687,-0.335105 0.40686,-0.33223 0.40692,-0.329376 0.40686,-0.326554 0.40686,-0.323738 0.40686,-0.320953 0.40692,-0.318161 0.40686,-0.315437 0.40686,-0.312714 0.40686,-0.309982 0.40692,-0.30729 0.40686,-0.304618 0.40686,-0.301987 0.40686,-0.299355 0.40692,-0.296714 0.40686,-0.294144 0.40686,-0.291573 0.40687,-0.289024 0.40686,-0.286484 0.40692,-0.283943 0.40686,-0.281494 0.40686,-0.278976 0.40686,-0.276528 0.40692,-0.274078 0.40686,-0.271683 0.40686,-0.269272 0.40686,-0.266876 0.40692,-0.264519 0.40686,-0.262153 0.40686,-0.259835 0.40686,-0.25753 0.40692,-0.255203 0.40686,-0.252968 0.40687,-0.250702 0.40686,-0.248436 0.40692,-0.246254 0.40686,-0.244026 0.40686,-0.241844 0.40686,-0.23967 0.40692,-0.237503 0.40686,-0.235382 0.40686,-0.233269 0.40686,-0.231148 0.40686,-0.229072 0.40692,-0.227021 0.40686,-0.224937 0.40686,-0.222946 0.40686,-0.220886 0.40692,-0.218903 0.40686,-0.216904 0.40687,-0.21495 0.40686,-0.21299 0.40692,-0.211052 0.40686,-0.209129 0.40686,-0.20723 0.40686,-0.205353 0.40692,-0.20346 0.40686,-0.201592 0.40686,-0.199753 0.40686,-0.197944 0.40692,-0.196106 0.40686,-0.194329 0.40686,-0.19255 0.40686,-0.190773 0.40692,-0.189003 0.40686,-0.187279 0.40687,-0.18557 0.40686,-0.183853 0.40686,-0.182136 0.40692,-0.180481 0.40686,-0.178795 0.40686,-0.17714 0.40686,-0.175521 0.40692,-0.17389 0.40686,-0.172302 0.40686,-0.170677 0.40686,-0.169121 0.40692,-0.167518 0.40686,-0.165963 0.40686,-0.164455 0.40686,-0.162895 0.40692,-0.161396 0.40686,-0.159893 0.40687,-0.158394 0.40686,-0.156922 0.40692,-0.155448 0.40686,-0.154011 0.40686,-0.152573 0.40686,-0.151131 0.40692,-0.149753 0.40686,-0.148312 0.40686,-0.146934 0.40686,-0.145584 0.40686,-0.144181 0.40692,-0.142856 0.40686,-0.141514 0.40686,-0.140163 0.40686,-0.138844 0.40692,-0.137558 0.40686,-0.136272 0.40687,-0.134957 0.40686,-0.133697 0.40692,-0.132477 0.40686,-0.131184 0.40686,-0.129963 0.40686,-0.128734 0.40692,-0.12751 0.40686,-0.126316 0.40686,-0.125092 0.40686,-0.123955 0.40692,-0.12276 0.40686,-0.121598 0.40686,-0.120434 0.40686,-0.1193 0.40692,-0.118199 0.40686,-0.117031 0.40686,-0.115959 0.40687,-0.114826 0.40686,-0.113755 0.40692,-0.112682 0.40686,-0.11158 0.40686,-0.110538 0.40686,-0.109497 0.40692,-0.108422 0.40686,-0.107414 0.40686,-0.106399 0.40686,-0.105362 0.40692,-0.104378 0.40686,-0.103371 0.40686,-0.102386 0.40686,-0.10141 0.40692,-0.100426 0.40686,-0.09948 0.40687,-0.09853 0.40686,-0.09758 0.40692,-0.09666 0.40686,-0.09571 0.40686,-0.09482 0.40686,-0.0939 0.40692,-0.09298 0.40686,-0.09213 0.40686,-0.09121 0.40686,-0.09038 0.40686,-0.08946 0.40692,-0.08863 0.40686,-0.08777 0.40686,-0.08692 0.40686,-0.08612 0.40692,-0.08526 0.40686,-0.08443 0.40687,-0.08364 0.40686,-0.08281 0.40692,-0.08204 0.40686,-0.08125 0.40686,-0.08045 0.40686,-0.07969 0.40692,-0.07892 0.40686,-0.07815 0.40686,-0.07739 0.40686,-0.07665 0.40692,-0.07592 0.40686,-0.07518 0.40686,-0.07445 0.40686,-0.07374 0.40692,-0.07301 0.40686,-0.07233 0.40687,-0.0716 0.40686,-0.07095 0.40686,-0.07022 0.40692,-0.06958 0.40686,-0.06887 0.40686,-0.06823 0.40686,-0.06755 0.40692,-0.06691 0.40686,-0.06623 0.40686,-0.06562 0.40686,-0.06498 0.40692,-0.06434 0.40686,-0.06372 0.40686,-0.06311 0.40686,-0.0625 0.40692,-0.06189 0.40686,-0.06128 0.40687,-0.06069 0.40686,-0.06011 0.40692,-0.0595 0.40686,-0.05895 0.40686,-0.05836 0.40686,-0.05781 0.40692,-0.05723 0.40686,-0.05667 0.40686,-0.05613 0.40686,-0.05557 0.40686,-0.05502 0.40692,-0.0545 0.40686,-0.05398 0.40686,-0.05346 0.40686,-0.05291 0.40692,-0.05242 0.40686,-0.0519 0.40687,-0.05138 0.40686,-0.05089 0.40692,-0.0504 0.40686,-0.04991 0.40686,-0.04942 0.40686,-0.04896 0.40692,-0.04844 0.40686,-0.04798 0.40686,-0.04752 0.40686,-0.04706 0.40692,-0.0466 0.40686,-0.04614 0.40686,-0.04568 0.40686,-0.04525 0.40692,-0.04479 0.40686,-0.04436 0.40686,-0.04393 0.40687,-0.04347 0.40686,-0.04308 0.40692,-0.04265 0.40686,-0.04225 0.40686,-0.04182 0.40686,-0.04139 0.40692,-0.04102 0.40686,-0.04059 0.40686,-0.0402 0.40686,-0.03983 0.40692,-0.03943 0.40686,-0.03903 0.40686,-0.03863 0.40686,-0.0383 0.40692,-0.0379 0.40686,-0.0375 0.40687,-0.03716 0.40686,-0.03679 0.40692,-0.03643 0.40686,-0.03609 0.40686,-0.03572 0.40686,-0.03538 0.40692,-0.03502 0.40686,-0.03468 0.40686,-0.03434 0.40686,-0.03398 0.40686,-0.03367 0.40692,-0.03336 0.40686,-0.033 0.40686,-0.03269 0.40686,-0.03235 0.40692,-0.03208 0.40686,-0.03171 0.40687,-0.03143 0.40686,-0.0311 0.40692,-0.03082 0.40686,-0.03051 0.40686,-0.03018 0.40686,-0.02993 0.40692,-0.02959 0.40686,-0.02932 0.40686,-0.02904 0.40686,-0.02874 0.40692,-0.02846 0.40686,-0.02819 0.40686,-0.02791 0.40686,-0.02763 0.40692,-0.02736 0.40686,-0.02708 0.40687,-0.02684 0.40686,-0.02656 0.40686,-0.02629 0.40692,-0.02604 0.40686,-0.02579 0.40686,-0.02552 0.40686,-0.02528 0.40692,-0.02503 0.40686,-0.02479 0.40686,-0.02454 0.40686,-0.02429 0.40692,-0.02405 0.40686,-0.0238 0.40686,-0.02359 0.40686,-0.02335 0.40692,-0.02313 0.40686,-0.02288 0.40687,-0.02267 0.40686,-0.02246 0.40692,-0.02221 0.40686,-0.022 0.40686,-0.02178 0.40686,-0.0216 0.40692,-0.02135 0.40686,-0.02114 0.40686,-0.02092"
       style="fill:none;stroke:#0072bd;stroke-width:3;stroke-linecap:butt;stroke-linejoin:round;stroke-miterlimit:10;stroke-dasharray:none;stroke-opacity:1"
       transform="matrix(0.66666667,0,0,0.66666667,116.85037,351.25985)" />
    <path
       id="path6"
       d="m 129.34375,558.90796 0.40689,-0.0209 0.40686,-0.0212 0.40688,-0.0214 0.40687,-0.0215 0.40688,-0.0218 0.40687,-0.022 0.40688,-0.0222 0.40686,-0.0224 0.40689,-0.0227 0.40686,-0.0229 0.40689,-0.0231 0.40686,-0.0233 0.40689,-0.0236 0.40686,-0.0238 0.40689,-0.024 0.40686,-0.0243 0.4069,-0.0245 0.40686,-0.0248 0.40687,-0.025 0.40688,-0.0253 0.40687,-0.0256 0.40688,-0.0258 0.40687,-0.0261 0.40686,-0.0263 0.40689,-0.0266 0.4069,-0.0268 0.40686,-0.0271 0.40687,-0.0273 0.40688,-0.0276 0.40687,-0.0279 0.40688,-0.0282 0.40687,-0.0285 0.40686,-0.0287 0.4069,-0.0291 0.40686,-0.0293 0.40689,-0.0297 0.40686,-0.0299 0.40689,-0.0302 0.40686,-0.0305 0.40689,-0.0308 0.40686,-0.0311 0.40689,-0.0314 0.40686,-0.0317 0.40688,-0.0321 0.40687,-0.0324 0.40688,-0.0326 0.40687,-0.033 0.40688,-0.0333 0.40686,-0.0337 0.40689,-0.034 0.40689,-0.0344 0.40686,-0.0347 0.40688,-0.035 0.40687,-0.0353 0.40688,-0.0357 0.40687,-0.0361 0.40688,-0.0364 0.40686,-0.0368 0.40689,-0.0372 0.40686,-0.0375 0.40689,-0.0379 0.40686,-0.0383 0.40689,-0.0386 0.40686,-0.0391 0.40689,-0.0394 0.40686,-0.0398 0.4069,-0.0402 0.40686,-0.0406 0.40687,-0.041 0.40688,-0.0414 0.40687,-0.0418 0.40688,-0.0422 0.40687,-0.0427 0.40686,-0.0431 0.40689,-0.0435 0.4069,-0.0439 0.40686,-0.0444 0.40687,-0.0448 0.40688,-0.0452 0.40687,-0.0456 0.40688,-0.0462 0.40687,-0.0466 0.40686,-0.0471 0.4069,-0.0475 0.40686,-0.048 0.40689,-0.0485 0.40686,-0.049 0.40689,-0.0494 0.40686,-0.0499 0.40689,-0.0504 0.40686,-0.0509 0.40689,-0.0514 0.40686,-0.0519 0.40688,-0.0524 0.40687,-0.0529 0.40688,-0.0535 0.40687,-0.054 0.40688,-0.0545 0.40686,-0.0551 0.40689,-0.0555 0.40689,-0.0562 0.40686,-0.0566 0.40688,-0.0572 0.40687,-0.0578 0.40688,-0.0584 0.40687,-0.059 0.40688,-0.0595 0.40686,-0.0601 0.40689,-0.0607 0.40686,-0.0613 0.40689,-0.0619 0.40686,-0.0625 0.40689,-0.0631 0.40686,-0.0637 0.40689,-0.0643 0.40686,-0.065 0.4069,-0.0656 0.40686,-0.0662 0.40687,-0.0669 0.40688,-0.0676 0.40687,-0.0682 0.40688,-0.0689 0.40687,-0.0695 0.40686,-0.0703 0.40689,-0.0709 0.4069,-0.0716 0.40686,-0.0723 0.40687,-0.0731 0.40688,-0.0737 0.40687,-0.0745 0.40688,-0.0751 0.40687,-0.0759 0.40686,-0.0767 0.4069,-0.0774 0.40686,-0.0782 0.40689,-0.0789 0.40686,-0.0797 0.40689,-0.0804 0.40686,-0.0812 0.40689,-0.082 0.40686,-0.0829 0.40689,-0.0836 0.40686,-0.0844 0.40688,-0.0853 0.40687,-0.0861 0.40688,-0.0869 0.40687,-0.0878 0.40688,-0.0886 0.40686,-0.0895 0.40689,-0.0904 0.40689,-0.0912 0.40686,-0.0921 0.40688,-0.093 0.40687,-0.0939 0.40688,-0.0948 0.40687,-0.0957 0.40688,-0.0967 0.40686,-0.0976 0.40689,-0.0985 0.40686,-0.0995 0.40689,-0.1004 0.40686,-0.10144 0.40689,-0.10236 0.40686,-0.10339 0.40689,-0.10437 0.40686,-0.10535 0.4069,-0.10638 0.40686,-0.10742 0.40687,-0.10846 0.40688,-0.10944 0.40687,-0.11053 0.40688,-0.11164 0.40687,-0.11267 0.40686,-0.11377 0.40689,-0.1148 0.4069,-0.11597 0.40686,-0.117 0.40687,-0.11823 0.40688,-0.11926 0.40687,-0.12049 0.40688,-0.12158 0.40687,-0.12274 0.40686,-0.12396 0.4069,-0.12512 0.40686,-0.12629 0.40689,-0.1275 0.40686,-0.12878 0.40689,-0.12995 0.40686,-0.13116 0.40689,-0.13245 0.40686,-0.13373 0.40689,-0.13494 0.40686,-0.1363 0.40688,-0.13751 0.40687,-0.13885 0.40688,-0.1402 0.40687,-0.14154 0.40688,-0.14282 0.40686,-0.14417 0.40689,-0.14557 0.40689,-0.14697 0.40686,-0.14832 0.40688,-0.14971 0.40687,-0.15113 0.40688,-0.15259 0.40687,-0.15399 0.40688,-0.15545 0.40686,-0.15693 0.40689,-0.15844 0.40686,-0.15985 0.40689,-0.16138 0.40686,-0.16296 0.40689,-0.16443 0.40686,-0.16596 0.40689,-0.16754 0.40686,-0.16907 0.4069,-0.17071 0.40686,-0.1723 0.40687,-0.17389 0.40688,-0.17548 0.40687,-0.17718 0.40688,-0.17878 0.40687,-0.18048 0.40686,-0.18219 0.40689,-0.18384 0.4069,-0.18554 0.40686,-0.18726 0.40687,-0.18902 0.40688,-0.1908 0.40687,-0.1925 0.40688,-0.19434 0.40687,-0.19611 0.40686,-0.19793 0.4069,-0.19977 0.40686,-0.2016 0.40689,-0.20349 0.40686,-0.20532 0.40689,-0.20722 0.40686,-0.2091 0.40689,-0.21106 0.40686,-0.21302 0.40689,-0.21496 0.40686,-0.21692 0.40688,-0.21887 0.40687,-0.22089 0.40688,-0.22296 0.40687,-0.22492 0.40688,-0.22705 0.40686,-0.22906 0.40689,-0.23114 0.40689,-0.23328 0.40686,-0.23535 0.40688,-0.23755 0.40687,-0.23968 0.40688,-0.24183 0.40687,-0.24401 0.40688,-0.24622 0.40686,-0.24847 0.40689,-0.25068 0.40686,-0.25299 0.40689,-0.25518 0.40686,-0.25757 0.40689,-0.25983 0.40686,-0.26214 0.40689,-0.26453 0.40686,-0.26685 0.4069,-0.26928 0.40686,-0.27167 0.40687,-0.27411 0.40688,-0.27649 0.40687,-0.27899 0.40688,-0.2815 0.40687,-0.28393 0.40686,-0.2865 0.40689,-0.289 0.4069,-0.29157 0.40686,-0.29419 0.40687,-0.29669 0.40688,-0.29938 0.40687,-0.30194 0.40688,-0.30462 0.40687,-0.30731 0.40686,-0.31 0.4069,-0.31269 0.40686,-0.31542 0.40689,-0.31818 0.40686,-0.32099 0.40689,-0.32373 0.40686,-0.32653 0.40689,-0.32941 0.40686,-0.33221 0.40689,-0.33509 0.40686,-0.33801 0.40688,-0.34088 0.40687,-0.34387 0.40688,-0.34674 0.40687,-0.3498 0.40688,-0.35278 0.40686,-0.35577 0.40689,-0.35877 0.40689,-0.36188 0.40686,-0.36493 0.40688,-0.36804 0.40687,-0.37115 0.40688,-0.37433 0.40687,-0.37744 0.40688,-0.38068 0.40686,-0.38385 0.40689,-0.38708 0.40686,-0.39032 0.40689,-0.39356 0.40688,-0.39691 0.40686,-0.40015 0.40689,-0.4035 0.40686,-0.40692 0.40686,-0.41022 0.40689,-0.41363 0.40686,-0.41706 0.40689,-0.42053 0.40686,-0.42395 0.40689,-0.42743 0.40686,-0.43091 0.40689,-0.43451 0.40686,-0.43798 0.40689,-0.44156 0.4069,-0.44516 0.40686,-0.44879 0.40689,-0.4524 0.40686,-0.45605 0.40689,-0.45975 0.40686,-0.46341 0.40689,-0.46716 0.40686,-0.47086 0.40689,-0.47464 0.40686,-0.47842 0.40686,-0.48221 0.40689,-0.48605 0.40686,-0.48987 0.40689,-0.49375 0.40686,-0.49765 0.40686,-0.50152 0.4069,-0.50546 0.40686,-0.5094 0.40689,-0.5134 0.40686,-0.51736 0.40689,-0.52137 0.40686,-0.52542 0.40689,-0.52945 0.40686,-0.53354 0.40689,-0.53759 0.40686,-0.54175 0.40689,-0.54584 0.40686,-0.55002 0.40689,-0.55417 0.40686,-0.55835 0.40689,-0.56259 0.40686,-0.56677 0.40689,-0.57108 0.40687,-0.57528 0.40689,-0.57962 0.40686,-0.5839 0.40689,-0.58822 0.40686,-0.59256 0.40689,-0.59693 0.40686,-0.60131 0.40689,-0.60569 0.40686,-0.6101 0.40689,-0.61454 0.40686,-0.61898 0.40689,-0.62345 0.40686,-0.62793 0.40689,-0.63244 0.40686,-0.63694 0.40689,-0.64148 0.40686,-0.64602 0.40687,-0.65061 0.40689,-0.65515 0.40686,-0.65976 0.40689,-0.66437 0.40686,-0.669 0.40689,-0.67365 0.40686,-0.67828 0.40689,-0.68295 0.40686,-0.68766 0.40689,-0.69232 0.40686,-0.69705 0.40689,-0.70175 0.40686,-0.70651 0.40689,-0.71125 0.40686,-0.716 0.40689,-0.72076 0.40687,-0.72556 0.40689,-0.73035 0.40686,-0.73513 0.40689,-0.73999 0.40686,-0.74479 0.40689,-0.7496 0.40686,-0.75449 0.40689,-0.7593 0.40686,-0.76419 0.40686,-0.76905 0.40689,-0.77392 0.40686,-0.77881 0.40689,-0.78369 0.40686,-0.78861 0.40689,-0.79352 0.40686,-0.7984 0.40689,-0.80334 0.40687,-0.80826 0.40689,-0.81317 0.40686,-0.81808 0.40689,-0.82306 0.40686,-0.82798 0.40689,-0.83291 0.40686,-0.83786 0.40689,-0.84278 0.40686,-0.84774 0.40689,-0.8527 0.40686,-0.85763 0.40689,-0.86258 0.40686,-0.86752 0.40689,-0.87247 0.40686,-0.87741 0.40689,-0.88236 0.40686,-0.88729 0.40687,-0.89225 0.40689,-0.89715 0.40686,-0.90207 0.40689,-0.90702 0.40686,-0.91192 0.40689,-0.91681 0.40686,-0.92175 0.40689,-0.92664 0.40686,-0.93152 0.40689,-0.9364 0.40686,-0.94128 0.40689,-0.94614 0.40686,-0.95099 0.40689,-0.95584 0.40686,-0.96066 0.40689,-0.96549 0.40687,-0.9703 0.40689,-0.9751 0.40686,-0.97989 0.40689,-0.98462 0.40686,-0.98941 0.40689,-0.99411 0.40686,-0.99887 0.40689,-1.00354 0.40686,-1.00827 0.40686,-1.01291 0.40689,-1.01758 0.40686,-1.02218 0.40689,-1.02683 0.40686,-1.0314 0.40689,-1.03598 0.40686,-1.04053 0.40689,-1.04504 0.40687,-1.04956 0.40689,-1.05405 0.40686,-1.0585 0.40689,-1.06293 0.40686,-1.06732 0.40689,-1.07172 0.40686,-1.07605 0.40689,-1.08038 0.40686,-1.08472 0.40689,-1.08896 0.40686,-1.09317 0.40689,-1.09741 0.40686,-1.10156 0.40689,-1.10574 0.40686,-1.10984 0.40689,-1.11392 0.40686,-1.11798 0.40687,-1.12198 0.40689,-1.12595 0.40686,-1.12991 0.40689,-1.13382 0.40686,-1.13766 0.40689,-1.14151 0.40686,-1.14533 0.40689,-1.14905 0.40686,-1.1528 0.40689,-1.15646 0.40686,-1.1601 0.40689,-1.16369 0.40686,-1.16724 0.40689,-1.17078 0.40686,-1.17422 0.40689,-1.17764 0.40687,-1.18106 0.40689,-1.18436 0.40686,-1.18768 0.40689,-1.19089 0.40686,-1.19412 0.40689,-1.19727 0.40686,-1.20038 0.40689,-1.20343 0.40686,-1.20642 0.40686,-1.20938 0.40689,-1.21231 0.40686,-1.21515 0.40689,-1.21799 0.40686,-1.2207 0.40689,-1.22342 0.40686,-1.22607 0.40689,-1.22867 0.40687,-1.23123 0.40689,-1.23371 0.40686,-1.23617 0.40689,-1.2385 0.40686,-1.24087 0.40689,-1.24314 0.40686,-1.24533 0.40689,-1.24752 0.40686,-1.24961 0.40689,-1.25165 0.40686,-1.25366 0.40689,-1.25555 0.40686,-1.25745 0.40689,-1.25924 0.40686,-1.26102 0.40689,-1.2627 0.40686,-1.26434 0.40687,-1.2659 0.40689,-1.26743 0.40686,-1.26886 0.40689,-1.27026 0.40686,-1.27161 0.40689,-1.27282 0.40686,-1.27408 0.40689,-1.27521 0.40686,-1.2763 0.40689,-1.27729 0.40686,-1.27826 0.40689,-1.27917 0.40686,-1.28 0.40689,-1.28076 0.40686,-1.28147 0.40689,-1.28207 0.40687,-1.28268 0.40689,-1.28321 0.40686,-1.28363 0.40689,-1.28402 0.40686,-1.28437 0.40689,-1.2846 0.40686,-1.28479 0.40689,-1.28495 L 353.125,304 l 0.40686,-1.285 0.40689,-1.28492 0.40686,-1.28479 0.40689,-1.2846 0.40686,-1.28437 0.40689,-1.28402 0.40686,-1.2836 0.40689,-1.28321 0.40687,-1.28271 0.40689,-1.28207 0.40686,-1.28147 0.40689,-1.28076 0.40686,-1.28 0.40689,-1.27914 0.40686,-1.27829 0.40689,-1.27732 0.40686,-1.27627 0.40689,-1.27521 0.40686,-1.27408 0.40689,-1.27286 0.40686,-1.27157 0.40689,-1.27026 0.40686,-1.2689 0.40689,-1.26739 0.40686,-1.26593 0.40687,-1.26431 0.40689,-1.2627 0.40686,-1.26102 0.40689,-1.25924 0.40686,-1.25745 0.40689,-1.25558 0.40686,-1.25363 0.40689,-1.25165 0.40686,-1.24964 0.40689,-1.24749 0.40686,-1.24533 0.40689,-1.24314 0.40686,-1.24084 0.40689,-1.23856 0.40686,-1.23613 0.40689,-1.23372 0.40687,-1.23123 0.40689,-1.22865 0.40686,-1.22609 0.40689,-1.22342 0.40686,-1.22072 0.40689,-1.21797 0.40686,-1.21517 0.40689,-1.21231 0.40686,-1.20938 0.40686,-1.20642 0.40689,-1.20344 0.40686,-1.20035 0.40689,-1.19725 0.40686,-1.19412 0.40689,-1.19092 0.40686,-1.18767 0.40689,-1.18436 0.40687,-1.18104 0.40689,-1.17764 0.40686,-1.17426 0.40689,-1.17075 0.40686,-1.16726 0.40689,-1.16368 0.40686,-1.1601 0.40689,-1.15648 0.40686,-1.15277 0.40689,-1.14906 0.40686,-1.14533 0.40689,-1.14152 0.40686,-1.13767 0.40689,-1.1338 0.40686,-1.12991 0.40689,-1.12597 0.40687,-1.12197 0.40686,-1.11797 0.40689,-1.11392 0.40686,-1.10982 0.40689,-1.10574 0.40686,-1.10158 0.40689,-1.09741 0.40686,-1.09319 0.40689,-1.08896 0.40686,-1.08468 0.40689,-1.08039 0.40686,-1.07608 0.40689,-1.0717 0.40686,-1.06734 0.40689,-1.06294 0.40686,-1.05847 0.40689,-1.05405 0.40687,-1.04956 0.40689,-1.04504 0.40686,-1.04053 0.40689,-1.03598 0.40686,-1.03142 0.40689,-1.02679 0.40686,-1.02223 0.40689,-1.01757 0.40686,-1.0129 0.40686,-1.00823 0.40689,-1.00357 0.40686,-0.99886 0.40689,-0.99414 0.40686,-0.98938 0.40689,-0.98466 0.40686,-0.97986 0.40689,-0.9751 0.40687,-0.9703 0.40689,-0.96549 0.40686,-0.96068 0.40689,-0.95584 0.40686,-0.95095 0.40689,-0.94617 0.40686,-0.94129 0.40689,-0.93637 0.40686,-0.93155 0.40689,-0.92663 0.40686,-0.92171 0.40689,-0.91684 0.40686,-0.91194 0.40689,-0.907 0.40686,-0.90207 0.40689,-0.89717 0.40686,-0.89223 0.40687,-0.88728 0.40689,-0.88237 0.40686,-0.87739 0.40689,-0.87249 0.40686,-0.8675 0.40689,-0.86258 0.40686,-0.85765 0.40689,-0.85268 0.40686,-0.84775 0.40689,-0.84279 0.40686,-0.83786 0.40689,-0.83291 0.40686,-0.82799 0.40689,-0.82303 0.40686,-0.8181 0.40689,-0.81319 0.40687,-0.80825 0.40689,-0.80333 0.40686,-0.7984 0.40689,-0.79352 0.40686,-0.78859 0.40689,-0.78369 0.40686,-0.77883 0.40689,-0.77391 0.40686,-0.76907 0.40686,-0.76418 0.40689,-0.7593 0.40686,-0.75446 0.40689,-0.74965 0.40686,-0.74478 0.40689,-0.73998 0.40686,-0.73512 0.40689,-0.73035 0.40687,-0.72558 0.40689,-0.72075 0.40686,-0.71602 0.40689,-0.71123 0.40686,-0.70651 0.40689,-0.70177 0.40686,-0.69702 0.40689,-0.69233 0.40686,-0.68764 0.40689,-0.68295 0.40686,-0.6783 0.40689,-0.67365 0.40686,-0.66898 0.40689,-0.66439 0.40686,-0.65976 0.40689,-0.65518 0.40686,-0.65056 0.40687,-0.64604 0.40689,-0.64148 0.40686,-0.63694 0.40689,-0.63243 0.40686,-0.62793 0.40689,-0.62346 0.40686,-0.61898 0.40689,-0.61455 0.40686,-0.6101 0.40689,-0.60569 0.40686,-0.6013 0.40689,-0.59694 0.40686,-0.59254 0.40689,-0.58823 0.40686,-0.5839 0.40689,-0.57959 0.40687,-0.57533 0.40689,-0.57104 0.40686,-0.56681 0.40689,-0.56255 0.40686,-0.55839 0.40689,-0.55415 0.40686,-0.55003 0.40689,-0.54585 0.40686,-0.54173 0.40686,-0.53761 0.40689,-0.53351 0.40686,-0.52946 0.40689,-0.52542 0.40686,-0.52138 0.40689,-0.51736 0.40686,-0.51339 0.40689,-0.50939 0.40687,-0.50548 0.40689,-0.50152 0.40686,-0.49764 0.40689,-0.49374 0.40686,-0.48988 0.40689,-0.48605 0.40686,-0.48222 0.40689,-0.4784 0.40686,-0.474653 0.40689,-0.470855 0.40686,-0.467156 0.40689,-0.463409 0.40686,-0.459732 0.40689,-0.456063 0.40686,-0.452415 0.40689,-0.448769 0.40686,-0.445152 0.40687,-0.441597 0.40689,-0.437981 0.40686,-0.434494 0.40689,-0.430938 0.40686,-0.427414 0.40689,-0.423981 0.40686,-0.420487 0.40689,-0.41706 0.40686,-0.413628 0.40689,-0.410255 0.40686,-0.406861 0.40689,-0.403518 0.40686,-0.400208 0.40689,-0.396866 0.40686,-0.393593 0.40689,-0.390312 0.40687,-0.387062 0.40689,-0.38385 0.40686,-0.380661 0.40689,-0.377449 0.40686,-0.374321 0.40689,-0.371163 0.40686,-0.368041 0.40689,-0.364914 0.40686,-0.361878 0.40686,-0.358818 0.40689,-0.355759 0.40686,-0.352752 0.40689,-0.349778 0.40686,-0.346778 0.40689,-0.343834 0.40686,-0.340927 0.40689,-0.337983 0.40687,-0.335105 0.40689,-0.33223 0.40686,-0.329376 0.40689,-0.326554 0.40686,-0.323738 0.40689,-0.320953 0.40686,-0.318161 0.40689,-0.315437 0.40686,-0.312714 0.40689,-0.309982 0.40686,-0.30729 0.40689,-0.304618 0.40686,-0.301987 0.40689,-0.299355 0.40686,-0.296714 0.40689,-0.294144 0.40686,-0.291573 0.40687,-0.289024 0.40689,-0.286484 0.40686,-0.283943 0.40689,-0.281494 0.40686,-0.278976 0.40689,-0.276528 0.40686,-0.274078 0.40689,-0.271683 0.40686,-0.269272 0.40689,-0.266876 0.40686,-0.264519 0.40689,-0.262153 0.40686,-0.259835 0.40689,-0.25753 0.40686,-0.255203 0.40689,-0.252968 0.40687,-0.250702 0.40689,-0.248436 0.40686,-0.246254 0.40689,-0.244026 0.40686,-0.241844 0.40689,-0.23967 0.40686,-0.237503 0.40689,-0.235382 0.40686,-0.233269 0.40686,-0.231148 0.40689,-0.229072 0.40686,-0.227021 0.40689,-0.224937 0.40686,-0.222946 0.40689,-0.220886 0.40686,-0.218903 0.40689,-0.216904 0.40687,-0.21495 0.40689,-0.21299 0.40686,-0.211052 0.40689,-0.209129 0.40686,-0.20723 0.40689,-0.205353 0.40686,-0.20346 0.40689,-0.201592 0.40686,-0.199753 0.40689,-0.197944 0.40686,-0.196106 0.40689,-0.194329 0.40686,-0.19255 0.40689,-0.190773 0.40686,-0.189003 0.40689,-0.187279 0.40686,-0.18557 0.40687,-0.183853 0.40689,-0.182136 0.40686,-0.180481 0.40689,-0.178795 0.40686,-0.17714 0.40689,-0.175521 0.40686,-0.17389 0.40689,-0.172302 0.40686,-0.170677 0.40689,-0.169121 0.40686,-0.167518 0.40689,-0.165963 0.40686,-0.164455 0.40689,-0.162895 0.40686,-0.161396 0.40689,-0.159893 0.40687,-0.158394 0.40689,-0.156922 0.40686,-0.155448 0.40689,-0.154011 0.40686,-0.152573 0.40689,-0.151131 0.40686,-0.149753 0.40689,-0.148312 0.40686,-0.146934 0.40686,-0.145584 0.40689,-0.144181 0.40686,-0.142856 0.40689,-0.141514 0.40686,-0.140163 0.40689,-0.138844 0.40686,-0.137558 0.40689,-0.136272 0.40687,-0.134957 0.40689,-0.133697 0.40686,-0.132477 0.40689,-0.131184 0.40686,-0.129963 0.40689,-0.128734 0.40686,-0.12751 0.40689,-0.126316 0.40686,-0.125092 0.40689,-0.123955 0.40686,-0.12276 0.40689,-0.121598 0.40686,-0.120434 0.40689,-0.1193 0.40686,-0.118199 0.40689,-0.117031 0.40686,-0.115959 0.40687,-0.114826 0.40689,-0.113755 0.40686,-0.112682 0.40689,-0.11158 0.40686,-0.110538 0.40689,-0.109497 0.40686,-0.108422 0.40689,-0.107414 0.40686,-0.106399 0.40689,-0.105362 0.40686,-0.104378 0.40689,-0.103371 0.40686,-0.102386 0.40689,-0.10141 0.40686,-0.100426 0.40689,-0.09948 0.40687,-0.09853 0.40686,-0.09758 0.40692,-0.09666 0.40686,-0.09571 0.40686,-0.09482 0.40686,-0.0939 0.40692,-0.09298 0.40686,-0.09213 0.40686,-0.09121 0.40686,-0.09038 0.40686,-0.08946 0.40692,-0.08863 0.40686,-0.08777 0.40686,-0.08692 0.40686,-0.08612 0.40692,-0.08526 0.40686,-0.08443 0.40687,-0.08364 0.40686,-0.08281 0.40692,-0.08204 0.40686,-0.08125 0.40686,-0.08045 0.40686,-0.07969 0.40692,-0.07892 0.40686,-0.07815 0.40686,-0.07739 0.40686,-0.07665 0.40692,-0.07592 0.40686,-0.07518 0.40686,-0.07445 0.40686,-0.07374 0.40692,-0.07301 0.40686,-0.07233 0.40686,-0.0716 0.40687,-0.07095 0.40686,-0.07022 0.40692,-0.06958 0.40686,-0.06887 0.40686,-0.06823 0.40686,-0.06755 0.40692,-0.06691 0.40686,-0.06623 0.40686,-0.06562 0.40686,-0.06498 0.40692,-0.06434 0.40686,-0.06372 0.40686,-0.06311 0.40686,-0.0625 0.40692,-0.06189 0.40686,-0.06128 0.40687,-0.06069 0.40686,-0.06011 0.40692,-0.0595 0.40686,-0.05895 0.40686,-0.05836 0.40686,-0.05781 0.40692,-0.05723 0.40686,-0.05667 0.40686,-0.05613 0.40686,-0.05557 0.40686,-0.05502 0.40692,-0.0545 0.40686,-0.05398 0.40686,-0.05346 0.40686,-0.05291 0.40692,-0.05242 0.40686,-0.0519 0.40687,-0.05138 0.40686,-0.05089 0.40692,-0.0504 0.40686,-0.04991 0.40686,-0.04942 0.40686,-0.04896 0.40692,-0.04844 0.40686,-0.04798 0.40686,-0.04752 0.40686,-0.04706 0.40692,-0.0466 0.40686,-0.04614 0.40686,-0.04568 0.40686,-0.04525 0.40692,-0.04479 0.40686,-0.04436 0.40686,-0.04393 0.40687,-0.04347 0.40686,-0.04308 0.40692,-0.04265 0.40686,-0.04225 0.40686,-0.04182 0.40686,-0.04139 0.40692,-0.04102 0.40686,-0.04059 0.40686,-0.0402 0.40686,-0.03983 0.40692,-0.03943 0.40686,-0.03903 0.40686,-0.03863 0.40686,-0.0383 0.40692,-0.0379 0.40686,-0.0375 0.40687,-0.03716 0.40686,-0.03679 0.40692,-0.03643 0.40686,-0.03609 0.40686,-0.03572 0.40686,-0.03538 0.40692,-0.03502 0.40686,-0.03468 0.40686,-0.03434 0.40686,-0.03398 0.40686,-0.03367 0.40692,-0.03336 0.40686,-0.033 0.40686,-0.03269 0.40686,-0.03235 0.40692,-0.03208 0.40686,-0.03171 0.40687,-0.03143 0.40686,-0.0311 0.40692,-0.03082 0.40686,-0.03051 0.40686,-0.03018 0.40686,-0.02993 0.40692,-0.02959 0.40686,-0.02932 0.40686,-0.02904 0.40686,-0.02874 0.40692,-0.02846 0.40686,-0.02819 0.40686,-0.02791 0.40686,-0.02763 0.40692,-0.02736 0.40686,-0.02708 0.40687,-0.02684 0.40686,-0.02656 0.40686,-0.02629 0.40692,-0.02604 0.40686,-0.02579 0.40686,-0.02552 0.40686,-0.02528 0.40692,-0.02503 0.40686,-0.02479 0.40686,-0.02454 0.40686,-0.02429 0.40692,-0.02405 0.40686,-0.0238 0.40686,-0.02359 0.40686,-0.02335 0.40692,-0.02313 0.40686,-0.02288 0.40687,-0.02267 0.40686,-0.02246 0.40692,-0.02221 0.40686,-0.022 0.40686,-0.02178 0.40686,-0.0216 0.40692,-0.02135 0.40686,-0.02114 0.40686,-0.02092 0.40686,-0.02074 0.40686,-0.02053 0.40692,-0.02034 0.40686,-0.0201 0.40686,-0.01995 0.40686,-0.01973 0.40692,-0.01952 0.40686,-0.01936 0.40687,-0.01915 0.40686,-0.01896 0.40692,-0.01878 0.40686,-0.01856 0.40686,-0.01841 0.40686,-0.01823 0.40692,-0.01804 0.40686,-0.01786 0.40686,-0.01768 0.40686,-0.01752 0.40692,-0.01734 0.40686,-0.01716 0.40686,-0.017 0.40686,-0.01682 0.40692,-0.01667 0.40686,-0.01651 0.40686,-0.01633 0.40687,-0.01617 0.40686,-0.01602 0.40692,-0.01587 0.40686,-0.01569 0.40686,-0.01553 0.40686,-0.01541 0.40692,-0.01523 0.40686,-0.0151 0.40686,-0.01492 0.40686,-0.0148 0.40692,-0.01465 0.40686,-0.01449 0.40686,-0.01437 0.40686,-0.01421 0.40692,-0.01407 0.40686,-0.01394 0.40687,-0.01379 0.40686,-0.01367 0.40692,-0.01354 0.40686,-0.01339 0.40686,-0.01327 0.40686,-0.01311 0.40692,-0.01299 0.40686,-0.01287 0.40686,-0.01274 0.40686,-0.01262 0.40686,-0.0125 0.40692,-0.01235 0.40686,-0.01225 0.40686,-0.01213 0.40686,-0.01198 0.40692,-0.01189 0.40686,-0.01176 0.40687,-0.01167 0.40686,-0.01152 0.40692,-0.01143 0.40686,-0.01131 0.40686,-0.01118 0.40686,-0.01109 0.40692,-0.01097 0.40686,-0.01088 0.40686,-0.01075 0.40686,-0.01066 0.40692,-0.01054 0.40686,-0.01045 0.40686,-0.01033 0.40686,-0.01023 0.40692,-0.01014 0.40686,-0.01005 0.40686,-0.0099 0.40687,-0.0098 0.40686,-0.0097 0.40692,-0.0096 0.40686,-0.0096 0.40686,-0.0094 0.40686,-0.0094 0.40692,-0.0093 0.40686,-0.0092 0.40686,-0.0091 0.40686,-0.009 0.40692,-0.0089 0.40686,-0.0088 0.40686,-0.0087 0.40686,-0.0086 0.40692,-0.0085 0.40686,-0.0085 0.40687,-0.0084 0.40686,-0.0083 0.40692,-0.0082 0.40686,-0.0082 0.40686,-0.0081 0.40686,-0.008 0.40692,-0.0079 0.40686,-0.0078 0.40686,-0.0077 0.40686,-0.0077 0.40686,-0.0076 0.40692,-0.0075 0.40686,-0.0074 0.40686,-0.0074 0.40686,-0.0073 0.40692,-0.0072 0.40686,-0.0071 0.40687,-0.0071 0.40686,-0.007 0.40692,-0.0069 0.40686,-0.0069 0.40686,-0.0068 0.40686,-0.0067 0.40692,-0.0067 0.40686,-0.0066 0.40686,-0.0066 0.40686,-0.0065 0.40692,-0.0064 0.40686,-0.0063 0.40686,-0.0063 0.40686,-0.0062 0.40692,-0.0062 0.40686,-0.0061 0.40686,-0.006 0.40687,-0.006 0.40686,-0.0059 0.40692,-0.0059 0.40686,-0.0058 0.40686,-0.0058 0.40686,-0.0057 0.40692,-0.0056 0.40686,-0.0056 0.40686,-0.0055 0.40686,-0.0055 0.40692,-0.0054 0.40686,-0.0053 0.40686,-0.0053 0.40686,-0.0053 0.40692,-0.0052 0.40686,-0.0051 0.40687,-0.0051 0.40686,-0.0051 0.40692,-0.005 0.40686,-0.0049 0.40686,-0.0049 0.40686,-0.0048 0.40692,-0.0048 0.40686,-0.0047 0.40686,-0.0047 0.40686,-0.0047 0.40686,-0.0046 0.40692,-0.0046 0.40686,-0.0045 0.40686,-0.0045 0.40686,-0.0044 0.40692,-0.0044 0.40686,-0.0043 0.40687,-0.0043 0.40686,-0.0042 0.40692,-0.0042 0.40686,-0.0042 0.40686,-0.0041 0.40686,-0.0041 0.40692,-0.004 0.40686,-0.004 0.40686,-0.004 0.40686,-0.0039 0.40692,-0.0039 0.40686,-0.0039 0.40686,-0.0038 0.40686,-0.0038 0.40692,-0.0037 0.40686,-0.0037 0.40687,-0.0037 0.40686,-0.0036 0.40686,-0.0036 0.40692,-0.0036 0.40686,-0.0035 0.40686,-0.0035 0.40686,-0.0035 0.40692,-0.0034 0.40686,-0.0034 0.40686,-0.0033 0.40686,-0.0033 0.40692,-0.0033 0.40686,-0.0032 0.40686,-0.0032 0.40686,-0.0032 0.40692,-0.0032 0.40686,-0.0031 0.40687,-0.0031 0.40686,-0.0031 0.40692,-0.003 0.40686,-0.003 0.40686,-0.003 0.40686,-0.0029 0.40692,-0.0029 0.40686,-0.0029 0.40686,-0.0029 0.40686,-0.0028 0.40686,-0.0028 0.40692,-0.0028 0.40686,-0.0027 0.40686,-0.0027 0.40686,-0.0027 0.40692,-0.0027 0.40686,-0.0026 0.40687,-0.0026 0.40686,-0.0026 0.40692,-0.0025 0.40686,-0.0025 0.40686,-0.0025 0.40686,-0.0025 0.40692,-0.0025 0.40686,-0.0024 0.40686,-0.0024 0.40686,-0.0024 0.40692,-0.0024 0.40686,-0.0023 0.40686,-0.0023 0.40686,-0.0023 0.40692,-0.0023 0.40686,-0.0022 0.40686,-0.0022 0.40687,-0.0022 0.40686,-0.0022 0.40692,-0.0022 0.40686,-0.0021 0.40686,-0.0021 0.40686,-0.0021 0.40692,-0.0021 0.40686,-0.0021 0.40686,-0.002 0.40686,-0.002 0.40692,-0.002 0.40686,-0.002 0.40686,-0.002 0.40686,-0.0019 0.40692,-0.0019 0.40686,-0.0019 0.40687,-0.0019 0.40686,-0.0019 0.40692,-0.0018 0.40686,-0.0018 0.40686,-0.0018 0.40686,-0.0018 0.40692,-0.0018 0.40686,-0.0017 0.40686,-0.0017 0.40686,-0.0017 0.40686,-0.0017 0.40692,-0.0017 0.40686,-0.0017 0.40686,-0.0017 0.40686,-0.0016 0.40692,-0.0016 0.40686,-0.0016 0.40687,-0.0016 0.40686,-0.0016 0.40692,-0.0016 0.40686,-0.0015 0.40686,-0.0015 0.40686,-0.0015 0.40692,-0.0015 0.40686,-0.0015 0.40686,-0.0015 0.40686,-0.0014 0.40692,-0.0014 0.40686,-0.0014 0.40686,-0.0014 0.40686,-0.0014 0.40692,-0.0013 0.40686,-0.0014 0.40687,-0.0013 0.40686,-0.0013 0.40686,-0.0013 0.40692,-0.0013 0.40686,-0.0013 0.40686,-0.0013 0.40686,-0.0013 0.40692,-0.0013 0.40686,-0.0013 0.40686,-0.0012 0.40686,-0.0012 0.40692,-0.0012 0.40686,-0.0012 0.40686,-0.0012 0.40686,-0.0012 0.40692,-0.0012 0.40686,-0.0012 0.40687,-0.0011 0.40686,-0.0011 0.40692,-0.0011 0.40686,-0.0011 0.40686,-0.0011 0.40686,-0.0011 0.40692,-0.0011 0.40686,-0.0011 0.40686,-10e-4 0.40686,-10e-4 0.40686,-0.001 0.40692,-10e-4 0.40686,-10e-4 0.40686,-9.8e-4 0.40686,-0.001 0.40692,-9.8e-4 0.40686,-9.5e-4 0.40687,-9.81e-4 0.40686,-9.5e-4 0.40692,-9.46e-4 0.40686,-9.19e-4 0.40686,-9.19e-4 0.40686,-9.2e-4 0.40692,-8.88e-4 0.40686,-9.2e-4 0.40686,-8.89e-4 0.40686,-8.58e-4 0.40692,-8.89e-4 0.40686,-8.58e-4 0.40686,-8.28e-4 0.40686,-8.54e-4 0.40692,-8.28e-4 0.40686,-8.28e-4 0.40686,-8.28e-4 0.40687,-7.97e-4 0.40686,-8.28e-4 0.40692,-7.63e-4 0.40686,-7.97e-4 0.40686,-7.67e-4 0.40686,-7.97e-4 0.40692,-7.67e-4 0.40686,-7.32e-4 0.40686,-7.67e-4 0.40686,-7.36e-4 0.40692,-7.36e-4 0.40686,-7.02e-4 0.40686,-7.37e-4 0.40686,-7.05e-4 0.40692,-7.02e-4 0.40686,-7.06e-4 0.40687,-6.75e-4 0.40686,-7.06e-4 0.40692,-6.71e-4 0.40686,-6.75e-4 0.40686,-6.45e-4 0.40686,-6.71e-4 0.40692,-6.45e-4 0.40686,-6.45e-4 0.40686,-6.41e-4 0.40686,-6.14e-4 0.40686,-6.45e-4 0.40692,-6.1e-4 0.40686,-6.14e-4 0.40686,-6.1e-4 0.40686,-5.84e-4 0.40692,-6.14e-4 0.40686,-5.8e-4 0.40687,-5.84e-4 0.40686,-5.8e-4 0.40692,-5.53e-4 0.40686,-5.83e-4 0.40686,-5.5e-4 0.40686,-5.53e-4 0.40692,-5.49e-4 0.40686,-5.53e-4 0.40686,-5.19e-4 0.40686,-5.53e-4 0.40692,-5.19e-4 0.40686,-5.23e-4 0.40686,-5.22e-4 0.40686,-5.19e-4 0.40692,-4.92e-4 0.40686,-4.88e-4 0.40687,-5.23e-4 0.40686,-4.88e-4 0.40686,-4.92e-4 0.40692,-4.58e-4 0.40686,-4.92e-4 0.40686,-4.58e-4 0.40686,-4.92e-4 0.40692,-4.58e-4 0.40686,-4.61e-4 0.40686,-4.28e-4 0.40686,-4.57e-4 0.40692,-4.62e-4 0.40686,-4.27e-4 0.40686,-4.31e-4 0.40686,-4.28e-4 0.40692,-4.31e-4 0.40686,-4.27e-4 0.40687,-4.31e-4 0.40686,-3.97e-4 0.40692,-4.27e-4 0.40686,-4e-4 0.40686,-3.97e-4 0.40686,-4.01e-4 0.40692,-3.96e-4 0.40686,-3.97e-4 0.40686,-3.7e-4"
       style="fill:none;stroke:#0072bd;stroke-width:3;stroke-linecap:butt;stroke-linejoin:round;stroke-miterlimit:10;stroke-dasharray:none;stroke-opacity:1"
       transform="matrix(0.66666667,0,0,0.66666667,116.85037,351.25985)" />
    <path
       id="path7"
       d="m 434.5,304 0.40686,-1.285 0.40689,-1.28492 0.40686,-1.28479 0.40689,-1.2846 0.40686,-1.28437 0.40689,-1.28402 0.40686,-1.2836 0.40689,-1.28321 0.40687,-1.28271 0.40689,-1.28207 0.40686,-1.28147 0.40689,-1.28076 0.40686,-1.28 0.40689,-1.27914 0.40686,-1.27829 0.40689,-1.27732 0.40686,-1.27627 0.40689,-1.27521 0.40686,-1.27408 0.40689,-1.27286 0.40686,-1.27157 0.40689,-1.27026 0.40686,-1.2689 0.40689,-1.26739 0.40686,-1.26593 0.40687,-1.26431 0.40689,-1.2627 0.40686,-1.26102 0.40689,-1.25924 0.40686,-1.25745 0.40689,-1.25558 0.40686,-1.25363 0.40689,-1.25165 0.40686,-1.24964 0.40689,-1.24749 0.40686,-1.24533 0.40689,-1.24314 0.40686,-1.24084 0.40689,-1.23856 0.40686,-1.23613 0.40689,-1.23372 0.40687,-1.23123 0.40689,-1.22865 0.40686,-1.22609 0.40689,-1.22342 0.40686,-1.22072 0.40689,-1.21797 0.40686,-1.21517 0.40689,-1.21231 0.40686,-1.20938 0.40686,-1.20642 0.40689,-1.20344 0.40686,-1.20035 0.40689,-1.19725 0.40686,-1.19412 0.40689,-1.19092 0.40686,-1.18767 0.40689,-1.18436 0.40687,-1.18104 0.40689,-1.17764 0.40686,-1.17426 0.40689,-1.17075 0.40686,-1.16726 0.40689,-1.16368 0.40686,-1.1601 0.40689,-1.15648 0.40686,-1.15277 0.40689,-1.14906 0.40686,-1.14533 0.40689,-1.14152 0.40686,-1.13767 0.40689,-1.1338 0.40686,-1.12991 0.40689,-1.12597 0.40686,-1.12197 0.40687,-1.11797 0.40689,-1.11392 0.40686,-1.10982 0.40689,-1.10574 0.40686,-1.10158 0.40689,-1.09741 0.40686,-1.09319 0.40689,-1.08896 0.40686,-1.08468 0.40689,-1.08039 0.40686,-1.07608 0.40689,-1.0717 0.40686,-1.06734 0.40689,-1.06294 0.40686,-1.05847 0.40689,-1.05405 0.40687,-1.04956 0.40689,-1.04504 0.40686,-1.04053 0.40689,-1.03598 0.40686,-1.03142 0.40689,-1.02679 0.40686,-1.02223 0.40689,-1.01757 0.40686,-1.0129 0.40686,-1.00823 0.40689,-1.00357 0.40686,-0.99886 0.40689,-0.99414 0.40686,-0.98938 0.40689,-0.98466 0.40686,-0.97986 0.40689,-0.9751 0.40687,-0.9703 0.40689,-0.96549 0.40686,-0.96068 0.40689,-0.95584 0.40686,-0.95095 0.40689,-0.94617 0.40686,-0.94129 0.40689,-0.93637 0.40686,-0.93155 0.40689,-0.92663 0.40686,-0.92171 0.40689,-0.91684 0.40686,-0.91194 0.40689,-0.907 0.40686,-0.90207 0.40689,-0.89717 0.40686,-0.89223 0.40687,-0.88728 0.40689,-0.88237 0.40686,-0.87739 0.40689,-0.87249 0.40686,-0.8675 0.40689,-0.86258 0.40686,-0.85765 0.40689,-0.85268 0.40686,-0.84775 0.40689,-0.84279 0.40686,-0.83786 0.40689,-0.83291 0.40686,-0.82799 0.40689,-0.82303 0.40686,-0.8181 0.40689,-0.81319 0.40687,-0.80825 0.40689,-0.80333 0.40686,-0.7984 0.40689,-0.79352 0.40686,-0.78859 0.40689,-0.78369 0.40686,-0.77883 0.40689,-0.77391 0.40686,-0.76907 0.40686,-0.76418 0.40689,-0.7593 0.40686,-0.75446 0.40689,-0.74965 0.40686,-0.74478 0.40689,-0.73998 0.40686,-0.73512 0.40689,-0.73035 0.40687,-0.72558 0.40689,-0.72075 0.40686,-0.71602 0.40689,-0.71123 0.40686,-0.70651 0.40689,-0.70177 0.40686,-0.69702 0.40689,-0.69233 0.40686,-0.68764 0.40689,-0.68295 0.40686,-0.6783 0.40689,-0.67365 0.40686,-0.66898 0.40689,-0.66439 0.40686,-0.65976 0.40689,-0.65518 0.40686,-0.65056 0.40687,-0.64604 0.40689,-0.64148 0.40686,-0.63694 0.40689,-0.63243 0.40686,-0.62793 0.40689,-0.62346 0.40686,-0.61898 0.40689,-0.61455 0.40686,-0.6101 0.40689,-0.60569 0.40686,-0.6013 0.40689,-0.59694 0.40686,-0.59254 0.40689,-0.58823 0.40686,-0.5839 0.40689,-0.57959 0.40687,-0.57533 0.40686,-0.57104 0.40692,-0.56681 0.40686,-0.56255 0.40686,-0.55839 0.40686,-0.55415 0.40692,-0.55003 0.40686,-0.54585 0.40686,-0.54173 0.40686,-0.53761 0.40686,-0.53351 0.40692,-0.52946 0.40686,-0.52542 0.40686,-0.52138 0.40686,-0.51736 0.40692,-0.51339 0.40686,-0.50939 0.40687,-0.50548 0.40686,-0.50152 0.40692,-0.49764 0.40686,-0.49374 0.40686,-0.48988 0.40686,-0.48605 0.40692,-0.48222 0.40686,-0.4784 0.40686,-0.474653 0.40686,-0.470855 0.40692,-0.467156 0.40686,-0.463409 0.40686,-0.459732 0.40686,-0.456063 0.40692,-0.452415 0.40686,-0.448769 0.40686,-0.445152 0.40687,-0.441597 0.40686,-0.437981 0.40692,-0.434494 0.40686,-0.430938 0.40686,-0.427414 0.40686,-0.423981 0.40692,-0.420487 0.40686,-0.41706 0.40686,-0.413628 0.40686,-0.410255 0.40692,-0.406861 0.40686,-0.403518 0.40686,-0.400208 0.40686,-0.396866 0.40692,-0.393593 0.40686,-0.390312 0.40687,-0.387062 0.40686,-0.38385 0.40692,-0.380661 0.40686,-0.377449 0.40686,-0.374321 0.40686,-0.371163 0.40692,-0.368041 0.40686,-0.364914 0.40686,-0.361878 0.40686,-0.358818 0.40686,-0.355759 0.40692,-0.352752 0.40686,-0.349778 0.40686,-0.346778 0.40686,-0.343834 0.40692,-0.340927 0.40686,-0.337983 0.40687,-0.335105 0.40686,-0.33223 0.40692,-0.329376 0.40686,-0.326554 0.40686,-0.323738 0.40686,-0.320953 0.40692,-0.318161 0.40686,-0.315437 0.40686,-0.312714 0.40686,-0.309982 0.40692,-0.30729 0.40686,-0.304618 0.40686,-0.301987 0.40686,-0.299355 0.40692,-0.296714 0.40686,-0.294144 0.40686,-0.291573 0.40687,-0.289024 0.40686,-0.286484 0.40692,-0.283943 0.40686,-0.281494 0.40686,-0.278976 0.40686,-0.276528 0.40692,-0.274078 0.40686,-0.271683 0.40686,-0.269272 0.40686,-0.266876 0.40692,-0.264519 0.40686,-0.262153 0.40686,-0.259835 0.40686,-0.25753 0.40692,-0.255203 0.40686,-0.252968 0.40687,-0.250702 0.40686,-0.248436 0.40692,-0.246254 0.40686,-0.244026 0.40686,-0.241844 0.40686,-0.23967 0.40692,-0.237503 0.40686,-0.235382 0.40686,-0.233269 0.40686,-0.231148 0.40686,-0.229072 0.40692,-0.227021 0.40686,-0.224937 0.40686,-0.222946 0.40686,-0.220886 0.40692,-0.218903 0.40686,-0.216904 0.40687,-0.21495 0.40686,-0.21299 0.40692,-0.211052 0.40686,-0.209129 0.40686,-0.20723 0.40686,-0.205353 0.40692,-0.20346 0.40686,-0.201592 0.40686,-0.199753 0.40686,-0.197944 0.40692,-0.196106 0.40686,-0.194329 0.40686,-0.19255 0.40686,-0.190773 0.40692,-0.189003 0.40686,-0.187279 0.40687,-0.18557 0.40686,-0.183853 0.40686,-0.182136 0.40692,-0.180481 0.40686,-0.178795 0.40686,-0.17714 0.40686,-0.175521 0.40692,-0.17389 0.40686,-0.172302 0.40686,-0.170677 0.40686,-0.169121 0.40692,-0.167518 0.40686,-0.165963 0.40686,-0.164455 0.40686,-0.162895 0.40692,-0.161396 0.40686,-0.159893 0.40687,-0.158394 0.40686,-0.156922 0.40692,-0.155448 0.40686,-0.154011 0.40686,-0.152573 0.40686,-0.151131 0.40692,-0.149753 0.40686,-0.148312 0.40686,-0.146934 0.40686,-0.145584 0.40686,-0.144181 0.40692,-0.142856 0.40686,-0.141514 0.40686,-0.140163 0.40686,-0.138844 0.40692,-0.137558 0.40686,-0.136272 0.40687,-0.134957 0.40686,-0.133697 0.40692,-0.132477 0.40686,-0.131184 0.40686,-0.129963 0.40686,-0.128734 0.40692,-0.12751 0.40686,-0.126316 0.40686,-0.125092 0.40686,-0.123955 0.40692,-0.12276 0.40686,-0.121598 0.40686,-0.120434 0.40686,-0.1193 0.40692,-0.118199 0.40686,-0.117031 0.40686,-0.115959 0.40687,-0.114826 0.40686,-0.113755 0.40692,-0.112682 0.40686,-0.11158 0.40686,-0.110538 0.40686,-0.109497 0.40692,-0.108422 0.40686,-0.107414 0.40686,-0.106399 0.40686,-0.105362 0.40692,-0.104378 0.40686,-0.103371 0.40686,-0.102386 0.40686,-0.10141 0.40692,-0.100426 0.40686,-0.09948 0.40687,-0.09853 0.40686,-0.09758 0.40692,-0.09666 0.40686,-0.09571 0.40686,-0.09482 0.40686,-0.0939 0.40692,-0.09298 0.40686,-0.09213 0.40686,-0.09121 0.40686,-0.09038 0.40686,-0.08946 0.40692,-0.08863 0.40686,-0.08777 0.40686,-0.08692 0.40686,-0.08612 0.40692,-0.08526 0.40686,-0.08443 0.40687,-0.08364 0.40686,-0.08281 0.40692,-0.08204 0.40686,-0.08125 0.40686,-0.08045 0.40686,-0.07969 0.40692,-0.07892 0.40686,-0.07815 0.40686,-0.07739 0.40686,-0.07665 0.40692,-0.07592 0.40686,-0.07518 0.40686,-0.07445 0.40686,-0.07374 0.40692,-0.07301 0.40686,-0.07233 0.40686,-0.0716 0.40687,-0.07095 0.40686,-0.07022 0.40692,-0.06958 0.40686,-0.06887 0.40686,-0.06823 0.40686,-0.06755 0.40692,-0.06691 0.40686,-0.06623 0.40686,-0.06562 0.40686,-0.06498 0.40692,-0.06434 0.40686,-0.06372 0.40686,-0.06311 0.40686,-0.0625 0.40692,-0.06189 0.40686,-0.06128 0.40687,-0.06069 0.40686,-0.06011 0.40692,-0.0595 0.40686,-0.05895 0.40686,-0.05836 0.40686,-0.05781 0.40692,-0.05723 0.40686,-0.05667 0.40686,-0.05613 0.40686,-0.05557 0.40686,-0.05502 0.40692,-0.0545 0.40686,-0.05398 0.40686,-0.05346 0.40686,-0.05291 0.40692,-0.05242 0.40686,-0.0519 0.40687,-0.05138 0.40686,-0.05089 0.40692,-0.0504 0.40686,-0.04991 0.40686,-0.04942 0.40686,-0.04896 0.40692,-0.04844 0.40686,-0.04798 0.40686,-0.04752 0.40686,-0.04706 0.40692,-0.0466 0.40686,-0.04614 0.40686,-0.04568 0.40686,-0.04525 0.40692,-0.04479 0.40686,-0.04436 0.40686,-0.04393 0.40687,-0.04347 0.40686,-0.04308 0.40692,-0.04265 0.40686,-0.04225 0.40686,-0.04182 0.40686,-0.04139 0.40692,-0.04102 0.40686,-0.04059 0.40686,-0.0402 0.40686,-0.03983 0.40692,-0.03943 0.40686,-0.03903 0.40686,-0.03863 0.40686,-0.0383 0.40692,-0.0379 0.40686,-0.0375 0.40687,-0.03716 0.40686,-0.03679 0.40692,-0.03643 0.40686,-0.03609 0.40686,-0.03572 0.40686,-0.03538 0.40692,-0.03502 0.40686,-0.03468 0.40686,-0.03434"
       style="fill:none;stroke:#0072bd;stroke-width:3;stroke-linecap:butt;stroke-linejoin:bevel;stroke-miterlimit:1;stroke-dasharray:12, 12;stroke-dashoffset:0;stroke-opacity:1"
       transform="matrix(0.66666667,0,0,0.66666667,116.85037,351.25985)" />
    <path
       style="fill:#000000;stroke:#000000;stroke-width:0"
       d="m 407.82133,552.66821 204.6138,0.70314"
       id="path8" />
    <path
       style="fill:#000000;stroke:#000000;stroke-width:2.26772;stroke-dasharray:none;marker-end:url(#marker12)"
       d="M 406.70569,553.87547 405.7113,358.47775"
       id="path11" />
    <path
       style="fill:#000000;stroke:#000000;stroke-width:2.26772;stroke-dasharray:none;marker-start:url(#marker12)"
       d="M 407.68501,748.08181 406.69062,552.68409"
       id="path11-0" />
    <path
       style="fill:#000000;stroke:#0072bd;stroke-width:2.24832;stroke-dasharray:none;stroke-opacity:1;marker-end:url(#Triangle)"
       d="m 459.19032,558.81971 4.37178,-14.38359"
       id="path13" />
    <path
       style="fill:#000000;stroke:#0072bd;stroke-width:1.77888;stroke-dasharray:none;stroke-opacity:1;marker-end:url(#Triangle-7)"
       d="m 426.81643,492.31077 3.82331,-10.29591"
       id="path13-8" />
    <path
       style="fill:#000000;stroke:#0072bd;stroke-width:2.26772;stroke-dasharray:none;stroke-opacity:1;marker-end:url(#marker10)"
       d="m 352.18536,554.33817 -2.98835,9.05293"
       id="path14" />
    <text
       xml:space="preserve"
       id="text14"
       style="font-style:normal;font-variant:normal;font-weight:normal;font-stretch:normal;font-size:15.4598px;font-family:'Times New Roman';-inkscape-font-specification:'Times New Roman, Normal';font-variant-ligatures:normal;font-variant-caps:normal;font-variant-numeric:normal;font-variant-east-asian:normal;white-space:pre;shape-inside:url(#rect14);fill:#000000;stroke:#0072bd;stroke-width:0;stroke-dasharray:none;stroke-opacity:1"
       transform="matrix(1.6036195,0,0,1.5028514,-183.11595,-125.68259)"><tspan
         x="373.89062"
         y="323.47439"
         id="tspan12">B</tspan></text>
    <text
       xml:space="preserve"
       id="text14-9"
       style="font-style:normal;font-variant:normal;font-weight:normal;font-stretch:normal;font-size:18.3909px;font-family:'Times New Roman';-inkscape-font-specification:'Times New Roman, Normal';font-variant-ligatures:normal;font-variant-caps:normal;font-variant-numeric:normal;font-variant-east-asian:normal;white-space:pre;shape-inside:url(#rect14-7);fill:#000000;stroke:#0072bd;stroke-width:0;stroke-dasharray:none;stroke-opacity:1"
       transform="matrix(1.3714156,0,0,1.2417874,142.65636,155.73753)"><tspan
         x="373.89062"
         y="326.0761"
         id="tspan13">H</tspan></text>
    <text
       xml:space="preserve"
       id="text14-8"
       style="font-style:normal;font-variant:normal;font-weight:normal;font-stretch:normal;font-size:13.144px;font-family:'Times New Roman';-inkscape-font-specification:'Times New Roman, Normal';font-variant-ligatures:normal;font-variant-caps:normal;font-variant-numeric:normal;font-variant-east-asian:normal;white-space:pre;shape-inside:url(#rect14-6);fill:#000000;stroke:#0072bd;stroke-width:0;stroke-dasharray:none;stroke-opacity:1"
       transform="matrix(1.8271823,0,0,1.8246763,-317.93653,-196.75821)"><tspan
         x="373.89062"
         y="321.41884"
         id="tspan14">B</tspan></text>
    <text
       xml:space="preserve"
       id="text14-8-6"
       style="font-style:normal;font-variant:normal;font-weight:normal;font-stretch:normal;font-size:13.144px;font-family:'Times New Roman';-inkscape-font-specification:'Times New Roman, Normal';font-variant-ligatures:normal;font-variant-caps:normal;font-variant-numeric:normal;font-variant-east-asian:normal;white-space:pre;shape-inside:url(#rect14-6-8);fill:#000000;stroke:#0072bd;stroke-width:0;stroke-dasharray:none;stroke-opacity:1"
       transform="matrix(1.8271823,0,0,1.8246763,-308.09267,-159.18356)"><tspan
         x="373.89062"
         y="321.41884"
         id="tspan15">B</tspan></text>
    <text
       xml:space="preserve"
       id="text15"
       style="font-style:normal;font-variant:normal;font-weight:normal;font-stretch:normal;font-size:18.6667px;font-family:'Times New Roman';-inkscape-font-specification:'Times New Roman, Normal';font-variant-ligatures:normal;font-variant-caps:normal;font-variant-numeric:normal;font-variant-east-asian:normal;white-space:pre;shape-inside:url(#rect15);fill:#000000;stroke:#0072bd;stroke-width:0;stroke-dasharray:none;stroke-opacity:1" />
    <text
       xml:space="preserve"
       transform="translate(116.85037,334.59514)"
       id="text9"
       style="font-style:normal;font-variant:normal;font-weight:normal;font-stretch:normal;font-size:24px;font-family:'Times New Roman';-inkscape-font-specification:'Times New Roman, Normal';font-variant-ligatures:normal;font-variant-caps:normal;font-variant-numeric:normal;font-variant-east-asian:normal;white-space:pre;shape-inside:url(#rect9);fill:#000000;fill-opacity:0.769231;stroke:#0072bd;stroke-width:0" />
    <text
       xml:space="preserve"
       transform="translate(116.85037,334.59514)"
       id="text10"
       style="font-style:normal;font-variant:normal;font-weight:normal;font-stretch:normal;font-size:24px;font-family:'Times New Roman';-inkscape-font-specification:'Times New Roman, Normal';font-variant-ligatures:normal;font-variant-caps:normal;font-variant-numeric:normal;font-variant-east-asian:normal;white-space:pre;shape-inside:url(#rect10);fill:#000000;fill-opacity:0.769231;stroke:#0072bd;stroke-width:0" />
    <text
       xml:space="preserve"
       transform="matrix(0.76624063,0,0,0.7444137,238.52004,339.30935)"
       id="text11"
       style="font-style:normal;font-variant:normal;font-weight:normal;font-stretch:normal;font-size:24px;font-family:'Times New Roman';-inkscape-font-specification:'Times New Roman, Normal';font-variant-ligatures:normal;font-variant-caps:normal;font-variant-numeric:normal;font-variant-east-asian:normal;white-space:pre;shape-inside:url(#rect11);fill:#000000;fill-opacity:1;stroke:#0072bd;stroke-width:0"><tspan
         x="185.20508"
         y="67.791181"
         id="tspan16">sat</tspan></text>
    <text
       xml:space="preserve"
       id="text14-8-5"
       style="font-style:normal;font-variant:normal;font-weight:normal;font-stretch:normal;font-size:13.144px;font-family:'Times New Roman';-inkscape-font-specification:'Times New Roman, Normal';font-variant-ligatures:normal;font-variant-caps:normal;font-variant-numeric:normal;font-variant-east-asian:normal;white-space:pre;shape-inside:url(#rect14-6-5);display:inline;fill:#000000;stroke:#0072bd;stroke-width:0;stroke-dasharray:none;stroke-opacity:1"
       transform="matrix(1.8271823,0,0,1.8246763,-271.40048,135.20181)"><tspan
         x="373.89062"
         y="321.41884"
         id="tspan17">-B</tspan></text>
    <text
       xml:space="preserve"
       transform="matrix(0.76624063,0,0,0.7444137,293.50841,670.52358)"
       id="text11-5"
       style="font-style:normal;font-variant:normal;font-weight:normal;font-stretch:normal;font-size:24px;font-family:'Times New Roman';-inkscape-font-specification:'Times New Roman, Normal';font-variant-ligatures:normal;font-variant-caps:normal;font-variant-numeric:normal;font-variant-east-asian:normal;white-space:pre;shape-inside:url(#rect11-8);display:inline;fill:#000000;fill-opacity:1;stroke:#0072bd;stroke-width:0"><tspan
         x="185.20508"
         y="67.791181"
         id="tspan18">sat</tspan></text>
    <text
       xml:space="preserve"
       id="text14-8-5-1-7"
       style="font-style:normal;font-variant:normal;font-weight:normal;font-stretch:normal;font-size:13.144px;font-family:'Times New Roman';-inkscape-font-specification:'Times New Roman, Normal';font-variant-ligatures:normal;font-variant-caps:normal;font-variant-numeric:normal;font-variant-east-asian:normal;white-space:pre;shape-inside:url(#rect14-6-5-0-5);display:inline;fill:#000000;stroke:#0072bd;stroke-width:0;stroke-dasharray:none;stroke-opacity:1"
       transform="matrix(1.8271823,0,0,1.8246763,-215.96777,-12.073952)"><tspan
         x="373.89062"
         y="321.41884"
         id="tspan19">H</tspan></text>
    <text
       xml:space="preserve"
       transform="matrix(0.76624063,0,0,0.7444137,343.96917,524.57869)"
       id="text11-5-7-3"
       style="font-style:normal;font-variant:normal;font-weight:normal;font-stretch:normal;font-size:24px;font-family:'Times New Roman';-inkscape-font-specification:'Times New Roman, Normal';font-variant-ligatures:normal;font-variant-caps:normal;font-variant-numeric:normal;font-variant-east-asian:normal;white-space:pre;shape-inside:url(#rect11-8-3-5);display:inline;fill:#000000;fill-opacity:1;stroke:#0072bd;stroke-width:0"><tspan
         x="185.20508"
         y="67.791181"
         id="tspan20">c</tspan></text>
    <text
       xml:space="preserve"
       id="text14-8-5-1-7-5"
       style="font-style:normal;font-variant:normal;font-weight:normal;font-stretch:normal;font-size:13.144px;font-family:'Times New Roman';-inkscape-font-specification:'Times New Roman, Normal';font-variant-ligatures:normal;font-variant-caps:normal;font-variant-numeric:normal;font-variant-east-asian:normal;white-space:pre;shape-inside:url(#rect14-6-5-0-5-4);display:inline;fill:#000000;stroke:#0072bd;stroke-width:0;stroke-dasharray:none;stroke-opacity:1"
       transform="matrix(1.8271823,0,0,1.8246763,-367.69274,-42.25907)"><tspan
         x="373.89062"
         y="321.41884"
         id="tspan21">-H</tspan></text>
    <text
       xml:space="preserve"
       transform="matrix(0.76624063,0,0,0.7444137,198.21054,494.64217)"
       id="text11-5-7-3-0"
       style="font-style:normal;font-variant:normal;font-weight:normal;font-stretch:normal;font-size:24px;font-family:'Times New Roman';-inkscape-font-specification:'Times New Roman, Normal';font-variant-ligatures:normal;font-variant-caps:normal;font-variant-numeric:normal;font-variant-east-asian:normal;white-space:pre;shape-inside:url(#rect11-8-3-5-5);display:inline;fill:#000000;fill-opacity:1;stroke:#0072bd;stroke-width:0"><tspan
         x="185.20508"
         y="67.791181"
         id="tspan22">c</tspan></text>
  </g>
  <path
     style="fill:#000000;stroke:#000000;stroke-width:2.26772;stroke-dasharray:none;marker-end:url(#Triangle)"
     d="M 244.78646,208.3033 H 483.85413"
     id="path9" />
  <path
     style="fill:#000000;stroke:#000000;stroke-width:2.26772;stroke-dasharray:none;marker-start:url(#marker10)"
     d="M 8.0528421,208.27722 H 247.12052"
     id="path9-9" />
</svg>
